M48
; DRILL file {KiCad 6.0.6-3a73a75311~116~ubuntu22.04.1} date Sat 13 Aug 2022 12:33:06 AM +0530
; FORMAT={-:-/ absolute / metric / decimal}
; #@! TF.CreationDate,2022-08-13T00:33:06+05:30
; #@! TF.GenerationSoftware,Kicad,Pcbnew,6.0.6-3a73a75311~116~ubuntu22.04.1
; #@! TF.FileFunction,MixedPlating,1,2
FMAT,2
METRIC
; #@! TA.AperFunction,Plated,PTH,ViaDrill
T1C0.400
; #@! TA.AperFunction,Plated,PTH,ComponentDrill
T2C0.700
; #@! TA.AperFunction,Plated,PTH,ComponentDrill
T3C0.800
; #@! TA.AperFunction,Plated,PTH,ComponentDrill
T4C1.000
; #@! TA.AperFunction,Plated,PTH,ComponentDrill
T5C1.020
; #@! TA.AperFunction,NonPlated,NPTH,ComponentDrill
T6C3.200
%
G90
G05
T1
X76.454Y-62.992
X87.63Y-103.632
X95.779Y-62.971
X98.552Y-103.632
T2
X59.436Y-79.502
X59.436Y-87.122
X63.5Y-90.678
X63.5Y-98.298
X78.994Y-114.554
X83.566Y-106.426
X86.614Y-114.554
X91.186Y-106.426
X106.172Y-88.9
X106.172Y-96.52
X111.76Y-76.962
X111.76Y-84.582
T3
X63.561Y-110.998
X65.561Y-110.998
X102.87Y-110.49
X104.87Y-110.49
T4
X62.484Y-63.505
X62.484Y-66.045
X62.484Y-68.585
X62.484Y-71.125
X62.484Y-73.665
X64.516Y-80.264
X64.516Y-82.804
X64.516Y-85.344
X67.051Y-117.856
X69.591Y-117.856
X85.09Y-110.998
X87.63Y-110.998
X90.17Y-110.998
X100.838Y-118.364
X103.378Y-118.364
X105.918Y-118.364
X106.68Y-77.978
X106.68Y-80.518
X106.68Y-83.058
X107.696Y-62.245
X107.696Y-64.785
X107.696Y-67.325
T5
X73.66Y-60.431
X73.66Y-62.971
X73.66Y-65.511
X73.66Y-68.051
X73.66Y-70.591
X73.66Y-73.131
X73.66Y-75.671
X73.66Y-78.211
X73.66Y-80.751
X73.66Y-83.291
X73.66Y-85.831
X73.66Y-88.371
X73.66Y-90.911
X73.66Y-93.451
X73.66Y-95.991
X99.06Y-60.431
X99.06Y-62.971
X99.06Y-65.511
X99.06Y-68.051
X99.06Y-70.591
X99.06Y-73.131
X99.06Y-75.671
X99.06Y-78.211
X99.06Y-80.751
X99.06Y-83.291
X99.06Y-85.831
X99.06Y-88.371
X99.06Y-90.911
X99.06Y-93.451
X99.06Y-95.991
T6
X59.69Y-52.324
X60.198Y-122.682
X113.03Y-52.324
X113.03Y-122.682
T0
M30
