%TF.GenerationSoftware,KiCad,Pcbnew,6.0.6-3a73a75311~116~ubuntu22.04.1*%
%TF.CreationDate,2022-08-13T00:33:12+05:30*%
%TF.ProjectId,esp32_breakout_board,65737033-325f-4627-9265-616b6f75745f,rev?*%
%TF.SameCoordinates,Original*%
%TF.FileFunction,Copper,L2,Bot*%
%TF.FilePolarity,Positive*%
%FSLAX46Y46*%
G04 Gerber Fmt 4.6, Leading zero omitted, Abs format (unit mm)*
G04 Created by KiCad (PCBNEW 6.0.6-3a73a75311~116~ubuntu22.04.1) date 2022-08-13 00:33:12*
%MOMM*%
%LPD*%
G01*
G04 APERTURE LIST*
%ADD10C,0.250000*%
%TA.AperFunction,NonConductor*%
%ADD11C,0.250000*%
%TD*%
%TA.AperFunction,ComponentPad*%
%ADD12R,1.600000X1.600000*%
%TD*%
%TA.AperFunction,ComponentPad*%
%ADD13C,1.600000*%
%TD*%
%TA.AperFunction,ComponentPad*%
%ADD14R,2.000000X2.000000*%
%TD*%
%TA.AperFunction,ComponentPad*%
%ADD15C,2.000000*%
%TD*%
%TA.AperFunction,ComponentPad*%
%ADD16C,1.400000*%
%TD*%
%TA.AperFunction,ComponentPad*%
%ADD17O,1.400000X1.400000*%
%TD*%
%TA.AperFunction,ComponentPad*%
%ADD18O,1.508000X3.016000*%
%TD*%
%TA.AperFunction,ComponentPad*%
%ADD19R,1.700000X1.700000*%
%TD*%
%TA.AperFunction,ComponentPad*%
%ADD20O,1.700000X1.700000*%
%TD*%
%TA.AperFunction,ComponentPad*%
%ADD21O,3.016000X1.508000*%
%TD*%
%TA.AperFunction,ViaPad*%
%ADD22C,0.800000*%
%TD*%
%TA.AperFunction,Conductor*%
%ADD23C,0.800000*%
%TD*%
G04 APERTURE END LIST*
D10*
D11*
X68460761Y-51268380D02*
X68460761Y-51506476D01*
X68698857Y-51411238D02*
X68460761Y-51506476D01*
X68222666Y-51411238D01*
X68603619Y-51696952D02*
X68460761Y-51506476D01*
X68317904Y-51696952D01*
X67079809Y-51268380D02*
X67079809Y-52077904D01*
X67032190Y-52173142D01*
X66984571Y-52220761D01*
X66889333Y-52268380D01*
X66698857Y-52268380D01*
X66603619Y-52220761D01*
X66556000Y-52173142D01*
X66508380Y-52077904D01*
X66508380Y-51268380D01*
X66032190Y-52268380D02*
X66032190Y-51268380D01*
X65651238Y-51268380D01*
X65556000Y-51316000D01*
X65508380Y-51363619D01*
X65460761Y-51458857D01*
X65460761Y-51601714D01*
X65508380Y-51696952D01*
X65556000Y-51744571D01*
X65651238Y-51792190D01*
X66032190Y-51792190D01*
D12*
%TO.P,C1,1*%
%TO.N,OUTPUT*%
X102870000Y-110490000D03*
D13*
%TO.P,C1,2*%
%TO.N,GND*%
X104870000Y-110490000D03*
%TD*%
D14*
%TO.P,U1,1,3V3*%
%TO.N,3V3*%
X73660000Y-60431000D03*
D15*
%TO.P,U1,2,GND*%
%TO.N,GND*%
X73660000Y-62971000D03*
%TO.P,U1,3,A1*%
%TO.N,A1*%
X73660000Y-65511000D03*
%TO.P,U1,4,A2*%
%TO.N,A2*%
X73660000Y-68051000D03*
%TO.P,U1,5,A3*%
%TO.N,A3*%
X73660000Y-70591000D03*
%TO.P,U1,6*%
%TO.N,N/C*%
X73660000Y-73131000D03*
%TO.P,U1,7*%
X73660000Y-75671000D03*
%TO.P,U1,8*%
X73660000Y-78211000D03*
%TO.P,U1,9*%
X73660000Y-80751000D03*
%TO.P,U1,10*%
X73660000Y-83291000D03*
%TO.P,U1,11,SDA*%
%TO.N,SDA*%
X73660000Y-85831000D03*
%TO.P,U1,12*%
%TO.N,N/C*%
X73660000Y-88371000D03*
%TO.P,U1,13*%
X73660000Y-90911000D03*
%TO.P,U1,14,SCL*%
%TO.N,SCL*%
X73660000Y-93451000D03*
%TO.P,U1,15*%
%TO.N,N/C*%
X73660000Y-95991000D03*
%TO.P,U1,16*%
X99060000Y-95991000D03*
%TO.P,U1,17*%
X99060000Y-93451000D03*
%TO.P,U1,18*%
X99060000Y-90911000D03*
%TO.P,U1,19*%
X99060000Y-88371000D03*
%TO.P,U1,20*%
X99060000Y-85831000D03*
%TO.P,U1,21,D32*%
%TO.N,D32*%
X99060000Y-83291000D03*
%TO.P,U1,22,D33*%
%TO.N,D33*%
X99060000Y-80751000D03*
%TO.P,U1,23*%
%TO.N,N/C*%
X99060000Y-78211000D03*
%TO.P,U1,24*%
X99060000Y-75671000D03*
%TO.P,U1,25,D27*%
%TO.N,D27*%
X99060000Y-73131000D03*
%TO.P,U1,26*%
%TO.N,N/C*%
X99060000Y-70591000D03*
%TO.P,U1,27*%
X99060000Y-68051000D03*
%TO.P,U1,28*%
X99060000Y-65511000D03*
%TO.P,U1,29,GND*%
%TO.N,GND*%
X99060000Y-62971000D03*
%TO.P,U1,30*%
%TO.N,N/C*%
X99060000Y-60431000D03*
%TD*%
D12*
%TO.P,C2,1*%
%TO.N,INPUT*%
X63560888Y-110998000D03*
D13*
%TO.P,C2,2*%
%TO.N,GND*%
X65560888Y-110998000D03*
%TD*%
D16*
%TO.P,R4,1*%
%TO.N,D8*%
X63500000Y-90678000D03*
D17*
%TO.P,R4,2*%
%TO.N,OUTPUT*%
X63500000Y-98298000D03*
%TD*%
D16*
%TO.P,R6,1*%
%TO.N,D9*%
X106172000Y-88900000D03*
D17*
%TO.P,R6,2*%
%TO.N,OUTPUT*%
X106172000Y-96520000D03*
%TD*%
D18*
%TO.P,U2,1*%
%TO.N,3V3*%
X85090000Y-110998000D03*
%TO.P,U2,2*%
%TO.N,D6*%
X87630000Y-110998000D03*
%TO.P,U2,3*%
%TO.N,D27*%
X90170000Y-110998000D03*
%TD*%
D19*
%TO.P,J1,1,Pin_1*%
%TO.N,INPUT*%
X67051000Y-117856000D03*
D20*
%TO.P,J1,2,Pin_2*%
%TO.N,GND*%
X69591000Y-117856000D03*
%TD*%
D21*
%TO.P,U3,1*%
%TO.N,3V3*%
X64516000Y-80264000D03*
%TO.P,U3,2*%
%TO.N,D8*%
X64516000Y-82804000D03*
%TO.P,U3,3*%
%TO.N,D33*%
X64516000Y-85344000D03*
%TD*%
D16*
%TO.P,R2,1*%
%TO.N,3V3*%
X83566000Y-106426000D03*
D17*
%TO.P,R2,2*%
%TO.N,D27*%
X91186000Y-106426000D03*
%TD*%
D19*
%TO.P,J2,1,Pin_1*%
%TO.N,INPUT*%
X105918000Y-118364000D03*
D20*
%TO.P,J2,2,Pin_2*%
%TO.N,GND*%
X103378000Y-118364000D03*
%TO.P,J2,3,Pin_3*%
%TO.N,OUTPUT*%
X100838000Y-118364000D03*
%TD*%
D19*
%TO.P,J3,1,Pin_1*%
%TO.N,A1*%
X62484000Y-63505000D03*
D20*
%TO.P,J3,2,Pin_2*%
%TO.N,A2*%
X62484000Y-66045000D03*
%TO.P,J3,3,Pin_3*%
%TO.N,A3*%
X62484000Y-68585000D03*
%TO.P,J3,4,Pin_4*%
%TO.N,SDA*%
X62484000Y-71125000D03*
%TO.P,J3,5,Pin_5*%
%TO.N,SCL*%
X62484000Y-73665000D03*
%TD*%
D21*
%TO.P,U4,1*%
%TO.N,3V3*%
X106680000Y-83058000D03*
%TO.P,U4,2*%
%TO.N,D9*%
X106680000Y-80518000D03*
%TO.P,U4,3*%
%TO.N,D32*%
X106680000Y-77978000D03*
%TD*%
D19*
%TO.P,J4,1,Pin_1*%
%TO.N,D27*%
X107696000Y-62245000D03*
D20*
%TO.P,J4,2,Pin_2*%
%TO.N,D32*%
X107696000Y-64785000D03*
%TO.P,J4,3,Pin_3*%
%TO.N,D33*%
X107696000Y-67325000D03*
%TD*%
D16*
%TO.P,R1,1*%
%TO.N,D6*%
X86614000Y-114554000D03*
D17*
%TO.P,R1,2*%
%TO.N,OUTPUT*%
X78994000Y-114554000D03*
%TD*%
D16*
%TO.P,R5,1*%
%TO.N,3V3*%
X111760000Y-84582000D03*
D17*
%TO.P,R5,2*%
%TO.N,D32*%
X111760000Y-76962000D03*
%TD*%
D16*
%TO.P,R3,1*%
%TO.N,3V3*%
X59436000Y-79502000D03*
D17*
%TO.P,R3,2*%
%TO.N,D33*%
X59436000Y-87122000D03*
%TD*%
D22*
%TO.N,GND*%
X76454000Y-62992000D03*
X95779000Y-62971000D03*
%TO.N,3V3*%
X87630000Y-103632000D03*
X98552000Y-103632000D03*
%TD*%
D23*
%TO.N,A1*%
X62484000Y-63505000D02*
X68585000Y-63505000D01*
X68585000Y-63505000D02*
X70591000Y-65511000D01*
X70591000Y-65511000D02*
X73660000Y-65511000D01*
%TO.N,OUTPUT*%
X77978000Y-113538000D02*
X77978000Y-111760000D01*
X63500000Y-103378000D02*
X70358000Y-110236000D01*
X63500000Y-98298000D02*
X63500000Y-103378000D01*
X70358000Y-110236000D02*
X76454000Y-110236000D01*
X102945888Y-110211000D02*
X102945888Y-106858112D01*
X78994000Y-116586000D02*
X81534000Y-119126000D01*
X100838000Y-118364000D02*
X100838000Y-112318888D01*
X100838000Y-112318888D02*
X102945888Y-110211000D01*
X81534000Y-119126000D02*
X100076000Y-119126000D01*
X106172000Y-103632000D02*
X106172000Y-96520000D01*
X102945888Y-106858112D02*
X106172000Y-103632000D01*
X78994000Y-114554000D02*
X78994000Y-116586000D01*
X78994000Y-114554000D02*
X77978000Y-113538000D01*
X76454000Y-110236000D02*
X77978000Y-111760000D01*
X100076000Y-119126000D02*
X100838000Y-118364000D01*
%TO.N,GND*%
X73660000Y-62971000D02*
X76433000Y-62971000D01*
X76433000Y-62971000D02*
X76454000Y-62992000D01*
X95758000Y-62992000D02*
X95779000Y-62971000D01*
X99060000Y-62971000D02*
X95779000Y-62971000D01*
%TO.N,INPUT*%
X63560888Y-113598888D02*
X67051000Y-117089000D01*
X67051000Y-117089000D02*
X67051000Y-117856000D01*
X103632000Y-123190000D02*
X105918000Y-120904000D01*
X67051000Y-120899000D02*
X69342000Y-123190000D01*
X67116888Y-117790112D02*
X67051000Y-117856000D01*
X63560888Y-110998000D02*
X63560888Y-113598888D01*
X67051000Y-117856000D02*
X67051000Y-120899000D01*
X69342000Y-123190000D02*
X103632000Y-123190000D01*
X105918000Y-120904000D02*
X105918000Y-118364000D01*
%TO.N,D6*%
X87630000Y-113538000D02*
X86614000Y-114554000D01*
X87630000Y-110998000D02*
X87630000Y-113538000D01*
%TO.N,3V3*%
X68834000Y-101346000D02*
X71882000Y-104394000D01*
X106680000Y-83058000D02*
X108204000Y-83058000D01*
X66802000Y-80264000D02*
X67564000Y-81026000D01*
X103632000Y-101600000D02*
X101600000Y-103632000D01*
X71861000Y-60431000D02*
X70612000Y-59182000D01*
X67564000Y-85090000D02*
X68834000Y-86360000D01*
X104394000Y-83058000D02*
X103632000Y-83820000D01*
X68834000Y-86360000D02*
X68834000Y-101346000D01*
X73660000Y-60431000D02*
X71861000Y-60431000D01*
X57404000Y-60198000D02*
X57404000Y-77470000D01*
X108204000Y-83058000D02*
X109728000Y-84582000D01*
X71882000Y-104394000D02*
X82550000Y-104394000D01*
X85344000Y-103632000D02*
X87630000Y-103632000D01*
X64516000Y-80264000D02*
X66802000Y-80264000D01*
X103632000Y-83820000D02*
X103632000Y-101600000D01*
X61468000Y-79502000D02*
X59436000Y-79502000D01*
X64516000Y-80264000D02*
X62230000Y-80264000D01*
X83566000Y-107442000D02*
X85090000Y-108966000D01*
X106680000Y-83058000D02*
X104394000Y-83058000D01*
X58420000Y-59182000D02*
X57404000Y-60198000D01*
X101600000Y-103632000D02*
X98552000Y-103632000D01*
X83566000Y-106426000D02*
X83566000Y-107442000D01*
X109728000Y-84582000D02*
X111760000Y-84582000D01*
X67564000Y-81026000D02*
X67564000Y-85090000D01*
X62230000Y-80264000D02*
X61468000Y-79502000D01*
X85090000Y-108966000D02*
X85090000Y-110998000D01*
X83566000Y-105410000D02*
X85344000Y-103632000D01*
X83566000Y-105410000D02*
X83566000Y-106426000D01*
X70612000Y-59182000D02*
X58420000Y-59182000D01*
X82550000Y-104394000D02*
X83566000Y-105410000D01*
X57404000Y-77470000D02*
X59436000Y-79502000D01*
%TO.N,D27*%
X91186000Y-106426000D02*
X91186000Y-74422000D01*
X91186000Y-106426000D02*
X91186000Y-107442000D01*
X92477000Y-73131000D02*
X99060000Y-73131000D01*
X104140000Y-71628000D02*
X102637000Y-73131000D01*
X91186000Y-107442000D02*
X90170000Y-108458000D01*
X90170000Y-108458000D02*
X90170000Y-110998000D01*
X102637000Y-73131000D02*
X99060000Y-73131000D01*
X104140000Y-63500000D02*
X104140000Y-71628000D01*
X91186000Y-74422000D02*
X92477000Y-73131000D01*
X107696000Y-62245000D02*
X105395000Y-62245000D01*
X105395000Y-62245000D02*
X104140000Y-63500000D01*
%TO.N,D33*%
X99060000Y-80751000D02*
X95779000Y-80751000D01*
X102108000Y-76454000D02*
X102108000Y-79502000D01*
X61468000Y-87122000D02*
X59436000Y-87122000D01*
X102108000Y-79502000D02*
X100859000Y-80751000D01*
X65786000Y-85344000D02*
X64516000Y-85344000D01*
X63246000Y-85344000D02*
X61468000Y-87122000D01*
X66802000Y-102108000D02*
X66802000Y-86360000D01*
X82296000Y-109474000D02*
X79502000Y-106680000D01*
X92202000Y-116078000D02*
X84328000Y-116078000D01*
X100859000Y-80751000D02*
X99060000Y-80751000D01*
X64516000Y-85344000D02*
X63246000Y-85344000D01*
X107696000Y-67325000D02*
X107696000Y-70866000D01*
X107696000Y-70866000D02*
X102108000Y-76454000D01*
X84328000Y-116078000D02*
X82296000Y-114046000D01*
X94488000Y-113792000D02*
X92202000Y-116078000D01*
X71374000Y-106680000D02*
X66802000Y-102108000D01*
X82296000Y-114046000D02*
X82296000Y-109474000D01*
X79502000Y-106680000D02*
X71374000Y-106680000D01*
X94488000Y-82042000D02*
X94488000Y-113792000D01*
X66802000Y-86360000D02*
X65786000Y-85344000D01*
X95779000Y-80751000D02*
X94488000Y-82042000D01*
%TO.N,D8*%
X59436000Y-90678000D02*
X63500000Y-90678000D01*
X58928000Y-82804000D02*
X57150000Y-84582000D01*
X64516000Y-82804000D02*
X58928000Y-82804000D01*
X57150000Y-88392000D02*
X59436000Y-90678000D01*
X57150000Y-84582000D02*
X57150000Y-88392000D01*
%TO.N,D32*%
X111760000Y-67056000D02*
X111760000Y-76962000D01*
X106680000Y-77978000D02*
X108966000Y-77978000D01*
X108966000Y-77978000D02*
X109982000Y-76962000D01*
X104648000Y-77978000D02*
X106680000Y-77978000D01*
X101621000Y-83291000D02*
X103886000Y-81026000D01*
X99060000Y-83291000D02*
X101621000Y-83291000D01*
X109489000Y-64785000D02*
X111760000Y-67056000D01*
X109982000Y-76962000D02*
X111760000Y-76962000D01*
X103886000Y-78740000D02*
X104648000Y-77978000D01*
X103886000Y-81026000D02*
X103886000Y-78740000D01*
X107696000Y-64785000D02*
X109489000Y-64785000D01*
%TO.N,D9*%
X106172000Y-88900000D02*
X112776000Y-88900000D01*
X112776000Y-88900000D02*
X113792000Y-87884000D01*
X112522000Y-80518000D02*
X106680000Y-80518000D01*
X113792000Y-81788000D02*
X112522000Y-80518000D01*
X113792000Y-87884000D02*
X113792000Y-81788000D01*
%TO.N,A2*%
X70337000Y-68051000D02*
X73660000Y-68051000D01*
X68331000Y-66045000D02*
X70337000Y-68051000D01*
X62484000Y-66045000D02*
X68331000Y-66045000D01*
%TO.N,A3*%
X70337000Y-70591000D02*
X73660000Y-70591000D01*
X62484000Y-68585000D02*
X68331000Y-68585000D01*
X68331000Y-68585000D02*
X70337000Y-70591000D01*
%TO.N,SDA*%
X72623000Y-85831000D02*
X73660000Y-85831000D01*
X71120000Y-73406000D02*
X71120000Y-84328000D01*
X62484000Y-71125000D02*
X68839000Y-71125000D01*
X71120000Y-84328000D02*
X72623000Y-85831000D01*
X68839000Y-71125000D02*
X71120000Y-73406000D01*
%TO.N,SCL*%
X70866000Y-86106000D02*
X70866000Y-92456000D01*
X70866000Y-92456000D02*
X71861000Y-93451000D01*
X69342000Y-75184000D02*
X69342000Y-84582000D01*
X67823000Y-73665000D02*
X69342000Y-75184000D01*
X71861000Y-93451000D02*
X73660000Y-93451000D01*
X62484000Y-73665000D02*
X67823000Y-73665000D01*
X69342000Y-84582000D02*
X70866000Y-86106000D01*
%TD*%
%TA.AperFunction,Conductor*%
%TO.N,GND*%
G36*
X112460031Y-49227926D02*
G01*
X112571259Y-49284600D01*
X112659531Y-49372872D01*
X112716205Y-49484100D01*
X112735733Y-49607398D01*
X112716205Y-49730696D01*
X112659531Y-49841924D01*
X112571259Y-49930196D01*
X112460031Y-49986870D01*
X112437306Y-49993515D01*
X112436154Y-49993815D01*
X112423662Y-49996232D01*
X112329467Y-50027293D01*
X112144869Y-50088164D01*
X112144866Y-50088165D01*
X112132800Y-50092144D01*
X112121343Y-50097621D01*
X112121338Y-50097623D01*
X111867940Y-50218759D01*
X111867933Y-50218763D01*
X111856482Y-50224237D01*
X111599188Y-50390369D01*
X111589471Y-50398566D01*
X111451710Y-50514778D01*
X111365090Y-50587848D01*
X111157981Y-50813471D01*
X110981220Y-51063582D01*
X110837672Y-51334126D01*
X110729664Y-51620717D01*
X110726728Y-51633088D01*
X110726727Y-51633092D01*
X110683399Y-51815670D01*
X110658947Y-51918709D01*
X110652867Y-51976075D01*
X110641408Y-52084199D01*
X110626668Y-52223271D01*
X110633349Y-52529465D01*
X110635238Y-52542026D01*
X110635238Y-52542032D01*
X110676994Y-52819766D01*
X110678883Y-52832330D01*
X110762531Y-53126953D01*
X110882937Y-53408560D01*
X111038149Y-53672585D01*
X111045931Y-53682636D01*
X111045934Y-53682640D01*
X111170788Y-53843891D01*
X111225651Y-53914747D01*
X111442404Y-54131122D01*
X111684894Y-54318202D01*
X111695855Y-54324620D01*
X111695861Y-54324624D01*
X111938217Y-54466529D01*
X111938221Y-54466531D01*
X111949189Y-54472953D01*
X111960881Y-54477928D01*
X111960883Y-54477929D01*
X112144024Y-54555856D01*
X112231006Y-54592867D01*
X112243248Y-54596320D01*
X112243249Y-54596320D01*
X112513531Y-54672548D01*
X112513534Y-54672549D01*
X112525775Y-54676001D01*
X112828718Y-54721006D01*
X112839236Y-54721447D01*
X112839238Y-54721447D01*
X112907932Y-54724326D01*
X112912084Y-54724500D01*
X113107474Y-54724500D01*
X113335647Y-54709945D01*
X113355849Y-54706036D01*
X113623858Y-54654183D01*
X113623864Y-54654181D01*
X113636338Y-54651768D01*
X113648408Y-54647788D01*
X113915131Y-54559836D01*
X113915134Y-54559835D01*
X113927200Y-54555856D01*
X113938657Y-54550379D01*
X113938662Y-54550377D01*
X114192060Y-54429241D01*
X114192067Y-54429237D01*
X114203518Y-54423763D01*
X114460812Y-54257631D01*
X114694910Y-54060152D01*
X114902019Y-53834529D01*
X115078780Y-53584418D01*
X115222328Y-53313874D01*
X115330336Y-53027283D01*
X115373700Y-52844555D01*
X115398119Y-52741655D01*
X115398119Y-52741653D01*
X115401053Y-52729291D01*
X115433332Y-52424729D01*
X115426651Y-52118535D01*
X115415965Y-52047454D01*
X115383006Y-51828234D01*
X115383006Y-51828233D01*
X115381117Y-51815670D01*
X115297469Y-51521047D01*
X115177063Y-51239440D01*
X115021851Y-50975415D01*
X114896461Y-50813471D01*
X114842133Y-50743306D01*
X114842132Y-50743305D01*
X114834349Y-50733253D01*
X114617596Y-50516878D01*
X114591196Y-50496510D01*
X114385167Y-50337560D01*
X114375106Y-50329798D01*
X114364145Y-50323380D01*
X114364139Y-50323376D01*
X114121783Y-50181471D01*
X114121779Y-50181469D01*
X114110811Y-50175047D01*
X113928853Y-50097623D01*
X113840691Y-50060110D01*
X113840690Y-50060109D01*
X113828994Y-50055133D01*
X113610803Y-49993596D01*
X113497443Y-49941336D01*
X113405775Y-49856598D01*
X113344778Y-49747681D01*
X113320424Y-49625245D01*
X113335096Y-49501275D01*
X113387360Y-49387907D01*
X113472098Y-49296239D01*
X113581015Y-49235242D01*
X113703451Y-49210888D01*
X113722938Y-49210641D01*
X113744651Y-49213384D01*
X113766847Y-49211208D01*
X113789158Y-49211519D01*
X113789151Y-49212008D01*
X113811787Y-49211537D01*
X113986389Y-49221342D01*
X114046082Y-49224694D01*
X114090543Y-49229704D01*
X114355004Y-49274638D01*
X114398626Y-49284594D01*
X114563681Y-49332145D01*
X114656376Y-49358850D01*
X114698604Y-49373626D01*
X114822518Y-49424953D01*
X114946430Y-49476279D01*
X114986743Y-49495693D01*
X114992893Y-49499092D01*
X115221518Y-49625449D01*
X115259384Y-49649241D01*
X115478161Y-49804471D01*
X115513138Y-49832364D01*
X115523836Y-49841924D01*
X115713159Y-50011114D01*
X115744791Y-50042747D01*
X115923531Y-50242757D01*
X115951429Y-50277740D01*
X116106654Y-50496510D01*
X116130458Y-50534394D01*
X116240364Y-50733253D01*
X116260204Y-50769151D01*
X116279618Y-50809465D01*
X116382271Y-51057292D01*
X116397049Y-51099523D01*
X116471307Y-51357275D01*
X116481264Y-51400898D01*
X116518613Y-51620717D01*
X116526197Y-51665356D01*
X116531206Y-51709819D01*
X116544589Y-51948129D01*
X116545026Y-51968868D01*
X116542514Y-51988753D01*
X116544691Y-52010954D01*
X116545596Y-52020187D01*
X116547500Y-52059122D01*
X116547500Y-123624181D01*
X116545446Y-123656823D01*
X116545309Y-123666626D01*
X116542514Y-123688753D01*
X116544690Y-123710949D01*
X116544379Y-123733262D01*
X116543890Y-123733255D01*
X116544361Y-123755889D01*
X116531204Y-123990180D01*
X116526195Y-124034641D01*
X116482569Y-124291410D01*
X116481262Y-124299102D01*
X116471306Y-124342723D01*
X116464450Y-124366520D01*
X116397049Y-124600472D01*
X116382271Y-124642705D01*
X116279615Y-124890537D01*
X116260205Y-124930842D01*
X116203191Y-125034001D01*
X116130457Y-125165604D01*
X116106652Y-125203490D01*
X115951423Y-125422265D01*
X115923532Y-125457239D01*
X115744783Y-125657260D01*
X115713151Y-125688891D01*
X115513138Y-125867632D01*
X115478160Y-125895527D01*
X115259394Y-126050750D01*
X115221508Y-126074555D01*
X114986746Y-126204303D01*
X114946434Y-126223717D01*
X114847142Y-126264845D01*
X114698603Y-126326372D01*
X114656371Y-126341149D01*
X114398623Y-126415404D01*
X114355003Y-126425360D01*
X114090544Y-126470294D01*
X114046084Y-126475304D01*
X113807715Y-126488690D01*
X113787017Y-126489126D01*
X113767145Y-126486616D01*
X113739986Y-126489279D01*
X113735711Y-126489698D01*
X113696776Y-126491602D01*
X59267921Y-126491602D01*
X59235279Y-126489548D01*
X59225476Y-126489411D01*
X59203349Y-126486616D01*
X59181153Y-126488792D01*
X59158840Y-126488481D01*
X59158847Y-126487992D01*
X59136213Y-126488463D01*
X58961611Y-126478658D01*
X58901918Y-126475306D01*
X58857457Y-126470296D01*
X58592996Y-126425362D01*
X58549374Y-126415406D01*
X58322211Y-126349962D01*
X58291621Y-126341149D01*
X58249396Y-126326374D01*
X58125482Y-126275047D01*
X58001570Y-126223721D01*
X57961257Y-126204307D01*
X57879650Y-126159204D01*
X57726482Y-126074551D01*
X57688616Y-126050759D01*
X57469838Y-125895528D01*
X57434862Y-125867636D01*
X57387527Y-125825335D01*
X57234841Y-125688886D01*
X57203209Y-125657253D01*
X57024469Y-125457243D01*
X56996571Y-125422260D01*
X56841346Y-125203490D01*
X56817541Y-125165605D01*
X56687793Y-124930843D01*
X56668382Y-124890535D01*
X56565729Y-124642708D01*
X56550951Y-124600477D01*
X56500784Y-124426345D01*
X56476692Y-124342722D01*
X56466736Y-124299101D01*
X56451538Y-124209653D01*
X56421803Y-124034641D01*
X56416794Y-123990181D01*
X56403411Y-123751871D01*
X56402974Y-123731132D01*
X56405486Y-123711247D01*
X56402404Y-123679813D01*
X56400500Y-123640878D01*
X56400500Y-122581271D01*
X57794668Y-122581271D01*
X57801349Y-122887465D01*
X57803238Y-122900026D01*
X57803238Y-122900032D01*
X57844994Y-123177766D01*
X57846883Y-123190330D01*
X57930531Y-123484953D01*
X58050937Y-123766560D01*
X58057378Y-123777516D01*
X58195553Y-124012560D01*
X58206149Y-124030585D01*
X58213931Y-124040636D01*
X58213934Y-124040640D01*
X58338788Y-124201891D01*
X58393651Y-124272747D01*
X58610404Y-124489122D01*
X58620473Y-124496890D01*
X58620475Y-124496892D01*
X58763758Y-124607434D01*
X58852894Y-124676202D01*
X58863855Y-124682620D01*
X58863861Y-124682624D01*
X59106217Y-124824529D01*
X59106221Y-124824531D01*
X59117189Y-124830953D01*
X59128881Y-124835928D01*
X59128883Y-124835929D01*
X59351963Y-124930850D01*
X59399006Y-124950867D01*
X59411248Y-124954320D01*
X59411249Y-124954320D01*
X59681531Y-125030548D01*
X59681534Y-125030549D01*
X59693775Y-125034001D01*
X59996718Y-125079006D01*
X60007236Y-125079447D01*
X60007238Y-125079447D01*
X60075932Y-125082326D01*
X60080084Y-125082500D01*
X60275474Y-125082500D01*
X60503647Y-125067945D01*
X60523849Y-125064036D01*
X60791858Y-125012183D01*
X60791864Y-125012181D01*
X60804338Y-125009768D01*
X60816408Y-125005788D01*
X61083131Y-124917836D01*
X61083134Y-124917835D01*
X61095200Y-124913856D01*
X61106657Y-124908379D01*
X61106662Y-124908377D01*
X61360060Y-124787241D01*
X61360067Y-124787237D01*
X61371518Y-124781763D01*
X61628812Y-124615631D01*
X61862910Y-124418152D01*
X62070019Y-124192529D01*
X62121367Y-124119874D01*
X62239442Y-123952801D01*
X62246780Y-123942418D01*
X62390328Y-123671874D01*
X62498336Y-123385283D01*
X62541700Y-123202555D01*
X62566119Y-123099655D01*
X62566119Y-123099653D01*
X62569053Y-123087291D01*
X62601332Y-122782729D01*
X62594651Y-122476535D01*
X62562750Y-122264345D01*
X62551006Y-122186234D01*
X62551006Y-122186233D01*
X62549117Y-122173670D01*
X62465469Y-121879047D01*
X62423804Y-121781599D01*
X62350059Y-121609125D01*
X62345063Y-121597440D01*
X62214018Y-121374524D01*
X62196296Y-121344378D01*
X62196295Y-121344376D01*
X62189851Y-121333415D01*
X62174400Y-121313459D01*
X62010133Y-121101306D01*
X62010132Y-121101305D01*
X62002349Y-121091253D01*
X61785596Y-120874878D01*
X61764229Y-120858393D01*
X61553167Y-120695560D01*
X61543106Y-120687798D01*
X61532145Y-120681380D01*
X61532139Y-120681376D01*
X61289783Y-120539471D01*
X61289779Y-120539469D01*
X61278811Y-120533047D01*
X61096853Y-120455623D01*
X61008691Y-120418110D01*
X61008690Y-120418109D01*
X60996994Y-120413133D01*
X60956587Y-120401737D01*
X60714469Y-120333452D01*
X60714466Y-120333451D01*
X60702225Y-120329999D01*
X60399282Y-120284994D01*
X60388764Y-120284553D01*
X60388762Y-120284553D01*
X60320068Y-120281674D01*
X60320067Y-120281674D01*
X60315916Y-120281500D01*
X60120526Y-120281500D01*
X59892353Y-120296055D01*
X59875586Y-120299299D01*
X59604142Y-120351817D01*
X59604136Y-120351819D01*
X59591662Y-120354232D01*
X59579593Y-120358212D01*
X59579592Y-120358212D01*
X59312869Y-120446164D01*
X59312866Y-120446165D01*
X59300800Y-120450144D01*
X59289343Y-120455621D01*
X59289338Y-120455623D01*
X59035940Y-120576759D01*
X59035933Y-120576763D01*
X59024482Y-120582237D01*
X58767188Y-120748369D01*
X58757471Y-120756566D01*
X58621315Y-120871424D01*
X58533090Y-120945848D01*
X58325981Y-121171471D01*
X58149220Y-121421582D01*
X58005672Y-121692126D01*
X57975200Y-121772981D01*
X57909990Y-121946012D01*
X57897664Y-121978717D01*
X57894728Y-121991088D01*
X57894727Y-121991092D01*
X57851399Y-122173670D01*
X57826947Y-122276709D01*
X57794668Y-122581271D01*
X56400500Y-122581271D01*
X56400500Y-110110163D01*
X61960388Y-110110163D01*
X61960389Y-111885836D01*
X61960662Y-111890589D01*
X61964466Y-111907068D01*
X61964467Y-111907072D01*
X61988766Y-112012321D01*
X62001061Y-112065577D01*
X62079224Y-112227266D01*
X62191268Y-112367620D01*
X62208704Y-112381539D01*
X62210320Y-112382829D01*
X62213745Y-112386580D01*
X62224475Y-112397310D01*
X62223988Y-112397797D01*
X62294495Y-112475015D01*
X62346063Y-112588701D01*
X62360388Y-112694653D01*
X62360388Y-113545216D01*
X62359534Y-113571309D01*
X62355658Y-113630448D01*
X62357808Y-113648613D01*
X62357808Y-113648614D01*
X62366161Y-113719189D01*
X62367253Y-113729574D01*
X62375434Y-113818599D01*
X62379732Y-113833837D01*
X62381592Y-113849555D01*
X62392292Y-113884014D01*
X62408089Y-113934889D01*
X62411050Y-113944885D01*
X62435323Y-114030952D01*
X62442326Y-114045152D01*
X62447019Y-114060267D01*
X62455531Y-114076446D01*
X62455537Y-114076460D01*
X62488628Y-114139354D01*
X62493367Y-114148653D01*
X62512926Y-114188316D01*
X62523129Y-114209004D01*
X62532908Y-114228835D01*
X62542381Y-114241521D01*
X62549751Y-114255529D01*
X62605114Y-114325757D01*
X62611440Y-114334002D01*
X62637985Y-114369549D01*
X62664921Y-114405621D01*
X62678349Y-114418034D01*
X62678352Y-114418037D01*
X62724451Y-114460650D01*
X62735745Y-114471509D01*
X65283636Y-117019400D01*
X65357012Y-117120394D01*
X65395588Y-117239119D01*
X65400500Y-117301536D01*
X65400501Y-118793836D01*
X65400774Y-118798589D01*
X65404578Y-118815068D01*
X65404579Y-118815072D01*
X65436156Y-118951846D01*
X65441173Y-118973577D01*
X65519336Y-119135266D01*
X65631380Y-119275620D01*
X65648816Y-119289539D01*
X65648818Y-119289541D01*
X65700430Y-119330743D01*
X65784606Y-119422929D01*
X65836175Y-119536614D01*
X65850500Y-119642568D01*
X65850500Y-120845328D01*
X65849646Y-120871421D01*
X65845770Y-120930560D01*
X65847920Y-120948725D01*
X65847920Y-120948726D01*
X65856273Y-121019301D01*
X65857365Y-121029686D01*
X65865546Y-121118711D01*
X65869844Y-121133949D01*
X65871704Y-121149667D01*
X65898201Y-121235001D01*
X65901162Y-121244997D01*
X65925435Y-121331064D01*
X65932438Y-121345264D01*
X65937131Y-121360379D01*
X65945643Y-121376558D01*
X65945649Y-121376572D01*
X65978740Y-121439466D01*
X65983479Y-121448765D01*
X66023020Y-121528947D01*
X66032493Y-121541633D01*
X66039863Y-121555641D01*
X66095226Y-121625869D01*
X66101552Y-121634114D01*
X66123662Y-121663722D01*
X66155033Y-121705733D01*
X66214578Y-121760776D01*
X66225844Y-121771608D01*
X67341702Y-122887465D01*
X68455171Y-124000934D01*
X68473019Y-124019991D01*
X68512090Y-124064543D01*
X68526456Y-124075868D01*
X68526458Y-124075870D01*
X68582278Y-124119874D01*
X68590383Y-124126437D01*
X68659116Y-124183602D01*
X68672931Y-124191339D01*
X68685360Y-124201137D01*
X68764497Y-124242773D01*
X68773584Y-124247707D01*
X68851621Y-124291410D01*
X68866611Y-124296498D01*
X68880620Y-124303869D01*
X68898097Y-124309296D01*
X68898100Y-124309297D01*
X68965976Y-124330373D01*
X68975895Y-124333596D01*
X69060548Y-124362331D01*
X69076214Y-124364603D01*
X69091333Y-124369297D01*
X69180149Y-124379809D01*
X69190423Y-124381162D01*
X69260796Y-124391366D01*
X69260800Y-124391366D01*
X69278902Y-124393991D01*
X69297178Y-124393273D01*
X69297180Y-124393273D01*
X69359907Y-124390808D01*
X69375573Y-124390500D01*
X103578328Y-124390500D01*
X103604421Y-124391354D01*
X103619073Y-124392314D01*
X103645310Y-124394034D01*
X103645312Y-124394034D01*
X103663560Y-124395230D01*
X103681725Y-124393080D01*
X103681726Y-124393080D01*
X103752301Y-124384727D01*
X103762686Y-124383635D01*
X103833494Y-124377128D01*
X103851711Y-124375454D01*
X103866949Y-124371156D01*
X103882667Y-124369296D01*
X103968026Y-124342792D01*
X103977997Y-124339838D01*
X104064064Y-124315565D01*
X104078264Y-124308562D01*
X104093379Y-124303869D01*
X104109558Y-124295357D01*
X104109572Y-124295351D01*
X104172466Y-124262260D01*
X104181775Y-124257516D01*
X104245536Y-124226073D01*
X104261947Y-124217980D01*
X104274633Y-124208507D01*
X104288641Y-124201137D01*
X104358869Y-124145774D01*
X104367114Y-124139448D01*
X104424075Y-124096913D01*
X104424077Y-124096911D01*
X104438733Y-124085967D01*
X104493776Y-124026422D01*
X104504608Y-124015156D01*
X105938492Y-122581271D01*
X110626668Y-122581271D01*
X110633349Y-122887465D01*
X110635238Y-122900026D01*
X110635238Y-122900032D01*
X110676994Y-123177766D01*
X110678883Y-123190330D01*
X110762531Y-123484953D01*
X110882937Y-123766560D01*
X110889378Y-123777516D01*
X111027553Y-124012560D01*
X111038149Y-124030585D01*
X111045931Y-124040636D01*
X111045934Y-124040640D01*
X111170788Y-124201891D01*
X111225651Y-124272747D01*
X111442404Y-124489122D01*
X111452473Y-124496890D01*
X111452475Y-124496892D01*
X111595758Y-124607434D01*
X111684894Y-124676202D01*
X111695855Y-124682620D01*
X111695861Y-124682624D01*
X111938217Y-124824529D01*
X111938221Y-124824531D01*
X111949189Y-124830953D01*
X111960881Y-124835928D01*
X111960883Y-124835929D01*
X112183963Y-124930850D01*
X112231006Y-124950867D01*
X112243248Y-124954320D01*
X112243249Y-124954320D01*
X112513531Y-125030548D01*
X112513534Y-125030549D01*
X112525775Y-125034001D01*
X112828718Y-125079006D01*
X112839236Y-125079447D01*
X112839238Y-125079447D01*
X112907932Y-125082326D01*
X112912084Y-125082500D01*
X113107474Y-125082500D01*
X113335647Y-125067945D01*
X113355849Y-125064036D01*
X113623858Y-125012183D01*
X113623864Y-125012181D01*
X113636338Y-125009768D01*
X113648408Y-125005788D01*
X113915131Y-124917836D01*
X113915134Y-124917835D01*
X113927200Y-124913856D01*
X113938657Y-124908379D01*
X113938662Y-124908377D01*
X114192060Y-124787241D01*
X114192067Y-124787237D01*
X114203518Y-124781763D01*
X114460812Y-124615631D01*
X114694910Y-124418152D01*
X114902019Y-124192529D01*
X114953367Y-124119874D01*
X115071442Y-123952801D01*
X115078780Y-123942418D01*
X115222328Y-123671874D01*
X115330336Y-123385283D01*
X115373700Y-123202555D01*
X115398119Y-123099655D01*
X115398119Y-123099653D01*
X115401053Y-123087291D01*
X115433332Y-122782729D01*
X115426651Y-122476535D01*
X115394750Y-122264345D01*
X115383006Y-122186234D01*
X115383006Y-122186233D01*
X115381117Y-122173670D01*
X115297469Y-121879047D01*
X115255804Y-121781599D01*
X115182059Y-121609125D01*
X115177063Y-121597440D01*
X115046018Y-121374524D01*
X115028296Y-121344378D01*
X115028295Y-121344376D01*
X115021851Y-121333415D01*
X115006400Y-121313459D01*
X114842133Y-121101306D01*
X114842132Y-121101305D01*
X114834349Y-121091253D01*
X114617596Y-120874878D01*
X114596229Y-120858393D01*
X114385167Y-120695560D01*
X114375106Y-120687798D01*
X114364145Y-120681380D01*
X114364139Y-120681376D01*
X114121783Y-120539471D01*
X114121779Y-120539469D01*
X114110811Y-120533047D01*
X113928853Y-120455623D01*
X113840691Y-120418110D01*
X113840690Y-120418109D01*
X113828994Y-120413133D01*
X113788587Y-120401737D01*
X113546469Y-120333452D01*
X113546466Y-120333451D01*
X113534225Y-120329999D01*
X113231282Y-120284994D01*
X113220764Y-120284553D01*
X113220762Y-120284553D01*
X113152068Y-120281674D01*
X113152067Y-120281674D01*
X113147916Y-120281500D01*
X112952526Y-120281500D01*
X112724353Y-120296055D01*
X112707586Y-120299299D01*
X112436142Y-120351817D01*
X112436136Y-120351819D01*
X112423662Y-120354232D01*
X112411593Y-120358212D01*
X112411592Y-120358212D01*
X112144869Y-120446164D01*
X112144866Y-120446165D01*
X112132800Y-120450144D01*
X112121343Y-120455621D01*
X112121338Y-120455623D01*
X111867940Y-120576759D01*
X111867933Y-120576763D01*
X111856482Y-120582237D01*
X111599188Y-120748369D01*
X111589471Y-120756566D01*
X111453315Y-120871424D01*
X111365090Y-120945848D01*
X111157981Y-121171471D01*
X110981220Y-121421582D01*
X110837672Y-121692126D01*
X110807200Y-121772981D01*
X110741990Y-121946012D01*
X110729664Y-121978717D01*
X110726728Y-121991088D01*
X110726727Y-121991092D01*
X110683399Y-122173670D01*
X110658947Y-122276709D01*
X110626668Y-122581271D01*
X105938492Y-122581271D01*
X106728934Y-121790829D01*
X106747991Y-121772981D01*
X106778789Y-121745972D01*
X106778790Y-121745971D01*
X106792543Y-121733910D01*
X106847881Y-121663713D01*
X106854453Y-121655597D01*
X106875792Y-121629941D01*
X106911602Y-121586884D01*
X106919339Y-121573069D01*
X106929137Y-121560640D01*
X106970773Y-121481503D01*
X106975707Y-121472416D01*
X107019410Y-121394379D01*
X107024498Y-121379389D01*
X107031869Y-121365380D01*
X107038391Y-121344378D01*
X107058373Y-121280024D01*
X107061601Y-121270088D01*
X107070113Y-121245014D01*
X107090331Y-121185452D01*
X107092603Y-121169786D01*
X107097297Y-121154667D01*
X107107809Y-121065851D01*
X107109162Y-121055577D01*
X107119366Y-120985203D01*
X107119366Y-120985201D01*
X107121991Y-120967098D01*
X107120556Y-120930560D01*
X107118808Y-120886084D01*
X107118500Y-120870420D01*
X107118500Y-120150568D01*
X107138028Y-120027270D01*
X107194702Y-119916042D01*
X107268570Y-119838743D01*
X107320182Y-119797541D01*
X107320184Y-119797539D01*
X107337620Y-119783620D01*
X107449664Y-119643266D01*
X107477211Y-119586283D01*
X107518120Y-119501657D01*
X107527827Y-119481577D01*
X107540718Y-119425741D01*
X107564425Y-119323054D01*
X107564425Y-119323051D01*
X107568226Y-119306589D01*
X107568500Y-119301837D01*
X107568499Y-117426164D01*
X107568226Y-117421411D01*
X107564260Y-117404229D01*
X107532844Y-117268154D01*
X107527827Y-117246423D01*
X107501455Y-117191869D01*
X107459373Y-117104818D01*
X107459373Y-117104817D01*
X107449664Y-117084734D01*
X107337620Y-116944380D01*
X107197266Y-116832336D01*
X107174547Y-116821353D01*
X107055657Y-116763880D01*
X107035577Y-116754173D01*
X106967356Y-116738423D01*
X106877054Y-116717575D01*
X106877051Y-116717575D01*
X106860589Y-116713774D01*
X106855837Y-116713500D01*
X105919681Y-116713500D01*
X104980164Y-116713501D01*
X104975411Y-116713774D01*
X104958932Y-116717578D01*
X104958928Y-116717579D01*
X104822154Y-116749156D01*
X104800423Y-116754173D01*
X104780343Y-116763880D01*
X104661454Y-116821353D01*
X104638734Y-116832336D01*
X104599392Y-116863743D01*
X104595929Y-116866507D01*
X104487386Y-116928168D01*
X104365101Y-116953269D01*
X104241044Y-116939354D01*
X104157491Y-116903113D01*
X104156733Y-116904600D01*
X104114920Y-116883295D01*
X103903937Y-116795903D01*
X103874214Y-116786245D01*
X103808532Y-116770476D01*
X103781173Y-116768323D01*
X103779773Y-116771703D01*
X103778000Y-116786680D01*
X103778000Y-119933452D01*
X103782293Y-119960561D01*
X103785907Y-119961133D01*
X103800882Y-119959361D01*
X103874214Y-119941755D01*
X103903937Y-119932097D01*
X104114916Y-119844707D01*
X104137356Y-119833273D01*
X104256081Y-119794697D01*
X104380916Y-119794696D01*
X104499641Y-119833272D01*
X104600634Y-119906647D01*
X104674011Y-120007640D01*
X104712587Y-120126365D01*
X104717500Y-120188784D01*
X104717500Y-120241464D01*
X104697972Y-120364762D01*
X104641298Y-120475990D01*
X104600636Y-120523600D01*
X103251601Y-121872636D01*
X103150607Y-121946012D01*
X103031882Y-121984588D01*
X102969465Y-121989500D01*
X70004536Y-121989500D01*
X69881238Y-121969972D01*
X69770010Y-121913298D01*
X69722400Y-121872636D01*
X68368364Y-120518601D01*
X68294988Y-120417607D01*
X68256412Y-120298882D01*
X68251500Y-120236465D01*
X68251500Y-119680784D01*
X68271028Y-119557486D01*
X68327702Y-119446258D01*
X68415974Y-119357986D01*
X68527202Y-119301312D01*
X68650500Y-119281784D01*
X68773798Y-119301312D01*
X68831644Y-119325273D01*
X68854084Y-119336707D01*
X69065063Y-119424097D01*
X69094786Y-119433755D01*
X69160468Y-119449524D01*
X69187827Y-119451677D01*
X69189227Y-119448297D01*
X69191000Y-119433320D01*
X69191000Y-119425452D01*
X69991000Y-119425452D01*
X69995293Y-119452561D01*
X69998907Y-119453133D01*
X70013882Y-119451361D01*
X70087214Y-119433755D01*
X70116937Y-119424097D01*
X70327920Y-119336705D01*
X70355768Y-119322516D01*
X70550480Y-119203196D01*
X70575761Y-119184828D01*
X70749409Y-119036519D01*
X70771519Y-119014409D01*
X70919828Y-118840761D01*
X70938196Y-118815480D01*
X71057516Y-118620768D01*
X71071705Y-118592920D01*
X71159097Y-118381937D01*
X71168755Y-118352214D01*
X71184524Y-118286532D01*
X71186677Y-118259173D01*
X71183297Y-118257773D01*
X71168320Y-118256000D01*
X70022402Y-118256000D01*
X69995293Y-118260293D01*
X69991000Y-118287402D01*
X69991000Y-119425452D01*
X69191000Y-119425452D01*
X69191000Y-117424598D01*
X69991000Y-117424598D01*
X69995293Y-117451707D01*
X70022402Y-117456000D01*
X71160452Y-117456000D01*
X71187561Y-117451707D01*
X71188133Y-117448093D01*
X71186361Y-117433118D01*
X71168755Y-117359786D01*
X71159097Y-117330063D01*
X71071705Y-117119080D01*
X71057516Y-117091232D01*
X70938196Y-116896520D01*
X70919828Y-116871239D01*
X70771519Y-116697591D01*
X70749409Y-116675481D01*
X70575761Y-116527172D01*
X70550480Y-116508804D01*
X70355768Y-116389484D01*
X70327920Y-116375295D01*
X70116937Y-116287903D01*
X70087214Y-116278245D01*
X70021532Y-116262476D01*
X69994173Y-116260323D01*
X69992773Y-116263703D01*
X69991000Y-116278680D01*
X69991000Y-117424598D01*
X69191000Y-117424598D01*
X69191000Y-116286548D01*
X69186707Y-116259439D01*
X69183093Y-116258867D01*
X69168118Y-116260639D01*
X69094786Y-116278245D01*
X69065063Y-116287903D01*
X68854080Y-116375295D01*
X68812267Y-116396600D01*
X68811353Y-116394806D01*
X68715126Y-116434660D01*
X68590675Y-116444449D01*
X68469291Y-116415301D01*
X68373071Y-116358507D01*
X68347699Y-116338253D01*
X68330266Y-116324336D01*
X68168577Y-116246173D01*
X67993589Y-116205774D01*
X67988837Y-116205500D01*
X67981596Y-116205500D01*
X67977406Y-116204900D01*
X67858121Y-116168091D01*
X67751828Y-116092065D01*
X64906278Y-113246515D01*
X64832902Y-113145521D01*
X64794326Y-113026796D01*
X64794326Y-112901962D01*
X64832902Y-112783237D01*
X64906278Y-112682243D01*
X65007272Y-112608867D01*
X65125997Y-112570291D01*
X65250831Y-112570291D01*
X65281560Y-112576404D01*
X65294571Y-112579528D01*
X65325448Y-112584418D01*
X65545260Y-112601718D01*
X65576516Y-112601718D01*
X65796328Y-112584418D01*
X65827199Y-112579529D01*
X66041600Y-112528056D01*
X66071330Y-112518396D01*
X66275032Y-112434020D01*
X66302885Y-112419828D01*
X66346885Y-112392865D01*
X66367755Y-112375041D01*
X66366354Y-112371658D01*
X66357022Y-112359820D01*
X65278252Y-111281049D01*
X65204876Y-111180056D01*
X65166300Y-111061331D01*
X65161388Y-110999133D01*
X65161387Y-110998000D01*
X66132645Y-110998000D01*
X66148777Y-111020204D01*
X66917142Y-111788569D01*
X66939346Y-111804700D01*
X66942307Y-111802549D01*
X66951640Y-111790710D01*
X66982716Y-111739997D01*
X66996908Y-111712144D01*
X67081284Y-111508442D01*
X67090944Y-111478712D01*
X67142417Y-111264311D01*
X67147306Y-111233440D01*
X67164606Y-111013628D01*
X67164606Y-110982372D01*
X67147306Y-110762560D01*
X67142417Y-110731689D01*
X67090944Y-110517288D01*
X67081284Y-110487558D01*
X66996908Y-110283856D01*
X66982716Y-110256003D01*
X66955753Y-110212003D01*
X66937929Y-110191133D01*
X66934546Y-110192534D01*
X66922708Y-110201866D01*
X66148776Y-110975797D01*
X66132645Y-110998000D01*
X65161387Y-110998000D01*
X65161387Y-110997307D01*
X65180848Y-110873998D01*
X65237461Y-110762738D01*
X65278251Y-110714952D01*
X65560888Y-110432315D01*
X66351460Y-109641742D01*
X66367589Y-109619542D01*
X66365440Y-109616583D01*
X66353597Y-109607248D01*
X66302885Y-109576172D01*
X66275032Y-109561980D01*
X66071330Y-109477604D01*
X66041600Y-109467944D01*
X65827199Y-109416471D01*
X65796328Y-109411582D01*
X65576516Y-109394282D01*
X65545260Y-109394282D01*
X65325448Y-109411582D01*
X65294577Y-109416471D01*
X65080180Y-109467943D01*
X65050438Y-109477607D01*
X65032402Y-109485078D01*
X64911017Y-109514222D01*
X64786567Y-109504429D01*
X64706051Y-109475679D01*
X64648548Y-109447881D01*
X64648545Y-109447880D01*
X64628465Y-109438173D01*
X64560244Y-109422423D01*
X64469942Y-109401575D01*
X64469939Y-109401575D01*
X64453477Y-109397774D01*
X64448725Y-109397500D01*
X63562480Y-109397500D01*
X62673052Y-109397501D01*
X62668299Y-109397774D01*
X62651820Y-109401578D01*
X62651816Y-109401579D01*
X62515042Y-109433156D01*
X62493311Y-109438173D01*
X62473231Y-109447880D01*
X62411744Y-109477604D01*
X62331622Y-109516336D01*
X62191268Y-109628380D01*
X62079224Y-109768734D01*
X62001061Y-109930423D01*
X61960662Y-110105411D01*
X61960388Y-110110163D01*
X56400500Y-110110163D01*
X56400500Y-90303536D01*
X56420028Y-90180238D01*
X56476702Y-90069010D01*
X56564974Y-89980738D01*
X56676202Y-89924064D01*
X56799500Y-89904536D01*
X56922798Y-89924064D01*
X57034026Y-89980738D01*
X57081636Y-90021400D01*
X58549171Y-91488934D01*
X58567019Y-91507991D01*
X58606090Y-91552543D01*
X58620456Y-91563868D01*
X58620458Y-91563870D01*
X58676278Y-91607874D01*
X58684383Y-91614437D01*
X58753116Y-91671602D01*
X58766931Y-91679339D01*
X58779360Y-91689137D01*
X58858497Y-91730773D01*
X58867584Y-91735707D01*
X58945621Y-91779410D01*
X58960611Y-91784498D01*
X58974620Y-91791869D01*
X58992097Y-91797296D01*
X58992100Y-91797297D01*
X59059976Y-91818373D01*
X59069895Y-91821596D01*
X59154548Y-91850331D01*
X59170214Y-91852603D01*
X59185333Y-91857297D01*
X59274149Y-91867809D01*
X59284423Y-91869162D01*
X59354797Y-91879366D01*
X59354799Y-91879366D01*
X59372902Y-91881991D01*
X59391179Y-91881273D01*
X59391180Y-91881273D01*
X59453916Y-91878808D01*
X59469580Y-91878500D01*
X62472149Y-91878500D01*
X62595447Y-91898028D01*
X62673455Y-91933005D01*
X62835292Y-92027575D01*
X62835295Y-92027577D01*
X62849433Y-92035838D01*
X62864732Y-92041680D01*
X62864734Y-92041681D01*
X63064636Y-92118016D01*
X63064643Y-92118018D01*
X63079939Y-92123859D01*
X63321726Y-92173052D01*
X63338080Y-92173652D01*
X63338083Y-92173652D01*
X63475733Y-92178699D01*
X63568300Y-92182093D01*
X63813041Y-92150741D01*
X63828720Y-92146037D01*
X63828725Y-92146036D01*
X63931186Y-92115296D01*
X64049374Y-92079838D01*
X64104781Y-92052694D01*
X64256252Y-91978490D01*
X64256257Y-91978487D01*
X64270954Y-91971287D01*
X64380724Y-91892989D01*
X64458503Y-91837510D01*
X64458508Y-91837506D01*
X64471829Y-91828004D01*
X64612187Y-91688135D01*
X64635015Y-91665387D01*
X64635017Y-91665384D01*
X64646605Y-91653837D01*
X64674906Y-91614453D01*
X64781031Y-91466763D01*
X64790588Y-91453463D01*
X64844802Y-91343769D01*
X64916938Y-91241887D01*
X65017028Y-91167282D01*
X65135272Y-91127258D01*
X65260098Y-91125733D01*
X65379285Y-91162856D01*
X65481167Y-91234992D01*
X65555772Y-91335082D01*
X65595796Y-91453326D01*
X65601500Y-91520554D01*
X65601500Y-97449634D01*
X65581972Y-97572932D01*
X65525298Y-97684160D01*
X65437026Y-97772432D01*
X65325798Y-97829106D01*
X65202500Y-97848634D01*
X65079202Y-97829106D01*
X64967974Y-97772432D01*
X64879702Y-97684160D01*
X64836593Y-97608735D01*
X64833460Y-97601529D01*
X64833459Y-97601527D01*
X64826928Y-97586507D01*
X64692905Y-97379339D01*
X64526846Y-97196842D01*
X64333210Y-97043918D01*
X64283309Y-97016371D01*
X64131533Y-96932586D01*
X64131530Y-96932584D01*
X64117198Y-96924673D01*
X63884610Y-96842309D01*
X63763152Y-96820674D01*
X63657807Y-96801909D01*
X63657805Y-96801909D01*
X63641694Y-96799039D01*
X63625327Y-96798839D01*
X63625326Y-96798839D01*
X63411346Y-96796225D01*
X63394972Y-96796025D01*
X63151070Y-96833347D01*
X62916540Y-96910003D01*
X62697679Y-97023935D01*
X62684579Y-97033771D01*
X62684577Y-97033772D01*
X62651519Y-97058593D01*
X62500364Y-97172083D01*
X62421406Y-97254708D01*
X62341209Y-97338629D01*
X62341206Y-97338633D01*
X62329896Y-97350468D01*
X62278390Y-97425973D01*
X62208052Y-97529085D01*
X62190851Y-97554300D01*
X62086965Y-97778104D01*
X62082589Y-97793883D01*
X62082588Y-97793886D01*
X62072821Y-97829106D01*
X62021026Y-98015871D01*
X61994806Y-98261214D01*
X62009010Y-98507545D01*
X62063255Y-98748249D01*
X62069416Y-98763423D01*
X62069418Y-98763428D01*
X62149921Y-98961684D01*
X62156084Y-98976861D01*
X62164641Y-98990824D01*
X62240703Y-99114946D01*
X62288475Y-99230278D01*
X62299500Y-99323424D01*
X62299500Y-103324328D01*
X62298646Y-103350421D01*
X62294770Y-103409560D01*
X62296920Y-103427725D01*
X62296920Y-103427726D01*
X62305273Y-103498301D01*
X62306365Y-103508686D01*
X62314546Y-103597711D01*
X62318844Y-103612949D01*
X62320704Y-103628667D01*
X62345432Y-103708304D01*
X62347201Y-103714001D01*
X62350162Y-103723997D01*
X62374435Y-103810064D01*
X62381438Y-103824264D01*
X62386131Y-103839379D01*
X62394643Y-103855558D01*
X62394649Y-103855572D01*
X62427740Y-103918466D01*
X62432479Y-103927765D01*
X62472020Y-104007947D01*
X62481493Y-104020633D01*
X62488863Y-104034641D01*
X62544226Y-104104869D01*
X62550552Y-104113114D01*
X62578465Y-104150493D01*
X62604033Y-104184733D01*
X62617461Y-104197146D01*
X62617464Y-104197149D01*
X62663563Y-104239762D01*
X62674857Y-104250621D01*
X69471178Y-111046942D01*
X69489026Y-111065999D01*
X69528090Y-111110543D01*
X69542455Y-111121867D01*
X69542460Y-111121872D01*
X69598286Y-111165881D01*
X69606404Y-111172455D01*
X69675117Y-111229602D01*
X69688928Y-111237337D01*
X69701360Y-111247137D01*
X69717540Y-111255650D01*
X69717548Y-111255655D01*
X69780476Y-111288763D01*
X69789646Y-111293742D01*
X69867621Y-111337410D01*
X69882611Y-111342499D01*
X69896620Y-111349869D01*
X69982020Y-111376387D01*
X69991850Y-111379581D01*
X70076548Y-111408332D01*
X70092220Y-111410604D01*
X70107333Y-111415297D01*
X70196085Y-111425801D01*
X70206443Y-111427165D01*
X70276802Y-111437367D01*
X70276806Y-111437367D01*
X70294902Y-111439991D01*
X70313179Y-111439273D01*
X70313180Y-111439273D01*
X70375916Y-111436808D01*
X70391580Y-111436500D01*
X75791465Y-111436500D01*
X75914763Y-111456028D01*
X76025991Y-111512702D01*
X76073600Y-111553364D01*
X76660635Y-112140398D01*
X76734011Y-112241391D01*
X76772588Y-112360116D01*
X76777500Y-112422534D01*
X76777500Y-113484328D01*
X76776646Y-113510424D01*
X76774366Y-113545216D01*
X76772770Y-113569560D01*
X76774920Y-113587725D01*
X76774920Y-113587726D01*
X76783273Y-113658301D01*
X76784365Y-113668686D01*
X76787237Y-113699940D01*
X76792546Y-113757711D01*
X76796844Y-113772949D01*
X76798704Y-113788667D01*
X76823229Y-113867651D01*
X76825201Y-113874001D01*
X76828162Y-113883997D01*
X76852435Y-113970064D01*
X76859438Y-113984264D01*
X76864131Y-113999379D01*
X76872643Y-114015558D01*
X76872649Y-114015572D01*
X76905740Y-114078466D01*
X76910479Y-114087765D01*
X76950020Y-114167947D01*
X76959493Y-114180633D01*
X76966863Y-114194641D01*
X77022226Y-114264869D01*
X77028552Y-114273114D01*
X77070904Y-114329829D01*
X77082033Y-114344733D01*
X77141578Y-114399776D01*
X77152844Y-114410608D01*
X77420504Y-114678268D01*
X77493880Y-114779262D01*
X77527606Y-114872686D01*
X77557255Y-115004249D01*
X77563416Y-115019423D01*
X77563418Y-115019428D01*
X77605454Y-115122950D01*
X77650084Y-115232861D01*
X77658641Y-115246824D01*
X77734703Y-115370946D01*
X77782475Y-115486278D01*
X77793500Y-115579424D01*
X77793500Y-116532328D01*
X77792646Y-116558421D01*
X77788770Y-116617560D01*
X77790920Y-116635725D01*
X77790920Y-116635726D01*
X77799273Y-116706301D01*
X77800365Y-116716686D01*
X77808546Y-116805711D01*
X77812844Y-116820949D01*
X77814704Y-116836667D01*
X77841201Y-116922001D01*
X77844162Y-116931997D01*
X77868435Y-117018064D01*
X77875438Y-117032264D01*
X77880131Y-117047379D01*
X77888643Y-117063558D01*
X77888649Y-117063572D01*
X77921740Y-117126466D01*
X77926479Y-117135765D01*
X77966020Y-117215947D01*
X77975493Y-117228633D01*
X77982863Y-117242641D01*
X78038226Y-117312869D01*
X78044552Y-117321114D01*
X78098033Y-117392733D01*
X78157578Y-117447776D01*
X78168844Y-117458608D01*
X80647171Y-119936934D01*
X80665019Y-119955991D01*
X80668252Y-119959677D01*
X80704090Y-120000543D01*
X80774341Y-120055924D01*
X80782354Y-120062412D01*
X80851116Y-120119601D01*
X80864927Y-120127336D01*
X80877360Y-120137137D01*
X80893548Y-120145654D01*
X80893551Y-120145656D01*
X80956441Y-120178744D01*
X80965620Y-120183728D01*
X81027657Y-120218471D01*
X81027664Y-120218474D01*
X81043620Y-120227410D01*
X81058612Y-120232499D01*
X81072620Y-120239869D01*
X81158037Y-120266392D01*
X81167867Y-120269586D01*
X81252548Y-120298331D01*
X81268214Y-120300602D01*
X81283333Y-120305297D01*
X81372129Y-120315807D01*
X81382427Y-120317162D01*
X81439759Y-120325475D01*
X81452803Y-120327366D01*
X81452804Y-120327366D01*
X81470902Y-120329990D01*
X81489179Y-120329272D01*
X81489181Y-120329272D01*
X81551891Y-120326808D01*
X81567555Y-120326500D01*
X100022328Y-120326500D01*
X100048421Y-120327354D01*
X100060278Y-120328131D01*
X100089310Y-120330034D01*
X100089312Y-120330034D01*
X100107560Y-120331230D01*
X100125725Y-120329080D01*
X100125726Y-120329080D01*
X100196301Y-120320727D01*
X100206686Y-120319635D01*
X100277494Y-120313128D01*
X100295711Y-120311454D01*
X100310949Y-120307156D01*
X100326667Y-120305296D01*
X100412026Y-120278792D01*
X100421997Y-120275838D01*
X100508064Y-120251565D01*
X100522264Y-120244562D01*
X100537379Y-120239869D01*
X100553558Y-120231357D01*
X100553572Y-120231351D01*
X100616466Y-120198260D01*
X100625775Y-120193516D01*
X100645624Y-120183728D01*
X100705947Y-120153980D01*
X100718633Y-120144507D01*
X100732641Y-120137137D01*
X100769713Y-120107912D01*
X100791533Y-120090711D01*
X100900452Y-120029715D01*
X101007241Y-120006285D01*
X101081370Y-120000451D01*
X101081375Y-120000450D01*
X101096994Y-119999221D01*
X101349610Y-119938573D01*
X101453201Y-119895664D01*
X101575149Y-119845152D01*
X101575155Y-119845149D01*
X101589628Y-119839154D01*
X101602988Y-119830967D01*
X101602992Y-119830965D01*
X101708705Y-119766184D01*
X101811140Y-119703412D01*
X101823056Y-119693235D01*
X101823064Y-119693229D01*
X101849252Y-119670861D01*
X101955690Y-119605634D01*
X102077076Y-119576490D01*
X102201525Y-119586283D01*
X102316858Y-119634054D01*
X102367517Y-119670860D01*
X102393237Y-119692827D01*
X102418520Y-119711196D01*
X102613232Y-119830516D01*
X102641080Y-119844705D01*
X102852063Y-119932097D01*
X102881786Y-119941755D01*
X102947468Y-119957524D01*
X102974827Y-119959677D01*
X102976227Y-119956297D01*
X102978000Y-119941320D01*
X102978000Y-116794548D01*
X102973707Y-116767439D01*
X102970093Y-116766867D01*
X102955118Y-116768639D01*
X102881786Y-116786245D01*
X102852063Y-116795903D01*
X102641084Y-116883293D01*
X102618644Y-116894727D01*
X102499919Y-116933303D01*
X102375084Y-116933304D01*
X102256359Y-116894728D01*
X102155366Y-116821353D01*
X102081989Y-116720360D01*
X102043413Y-116601635D01*
X102038500Y-116539216D01*
X102038500Y-112981424D01*
X102058028Y-112858126D01*
X102114702Y-112746898D01*
X102155364Y-112699288D01*
X102647288Y-112207364D01*
X102748282Y-112133988D01*
X102867007Y-112095412D01*
X102929424Y-112090500D01*
X103715984Y-112090499D01*
X103757836Y-112090499D01*
X103762589Y-112090226D01*
X103779068Y-112086422D01*
X103779072Y-112086421D01*
X103915846Y-112054844D01*
X103937577Y-112049827D01*
X103957657Y-112040120D01*
X103957660Y-112040119D01*
X104015163Y-112012321D01*
X104134670Y-111976240D01*
X104259477Y-111978854D01*
X104341514Y-112002922D01*
X104359550Y-112010393D01*
X104389292Y-112020057D01*
X104603689Y-112071529D01*
X104634560Y-112076418D01*
X104854372Y-112093718D01*
X104885628Y-112093718D01*
X105105440Y-112076418D01*
X105136311Y-112071529D01*
X105350712Y-112020056D01*
X105380442Y-112010396D01*
X105584144Y-111926020D01*
X105611997Y-111911828D01*
X105655997Y-111884865D01*
X105676867Y-111867041D01*
X105675466Y-111863658D01*
X105666134Y-111851820D01*
X104587364Y-110773049D01*
X104513988Y-110672056D01*
X104475412Y-110553331D01*
X104470500Y-110491133D01*
X104470499Y-110490000D01*
X105441757Y-110490000D01*
X105457889Y-110512204D01*
X106226254Y-111280569D01*
X106248458Y-111296700D01*
X106251419Y-111294549D01*
X106260752Y-111282710D01*
X106291828Y-111231997D01*
X106306020Y-111204144D01*
X106390396Y-111000442D01*
X106400056Y-110970712D01*
X106451529Y-110756311D01*
X106456418Y-110725440D01*
X106473718Y-110505628D01*
X106473718Y-110474372D01*
X106456418Y-110254560D01*
X106451529Y-110223689D01*
X106400056Y-110009288D01*
X106390396Y-109979558D01*
X106306020Y-109775856D01*
X106291828Y-109748003D01*
X106264865Y-109704003D01*
X106247041Y-109683133D01*
X106243658Y-109684534D01*
X106231820Y-109693866D01*
X105457888Y-110467797D01*
X105441757Y-110490000D01*
X104470499Y-110490000D01*
X104470499Y-110489307D01*
X104489960Y-110365998D01*
X104546573Y-110254738D01*
X104587363Y-110206952D01*
X104870000Y-109924315D01*
X105660572Y-109133742D01*
X105676701Y-109111542D01*
X105674552Y-109108583D01*
X105662709Y-109099248D01*
X105611997Y-109068172D01*
X105584144Y-109053980D01*
X105380442Y-108969604D01*
X105350712Y-108959944D01*
X105136311Y-108908471D01*
X105105440Y-108903582D01*
X104885628Y-108886282D01*
X104854372Y-108886282D01*
X104634557Y-108903582D01*
X104607808Y-108907819D01*
X104482974Y-108907820D01*
X104364248Y-108869245D01*
X104263254Y-108795870D01*
X104189878Y-108694877D01*
X104151301Y-108576152D01*
X104146388Y-108513732D01*
X104146388Y-107520648D01*
X104165916Y-107397350D01*
X104222590Y-107286122D01*
X104263252Y-107238512D01*
X106982934Y-104518829D01*
X107001991Y-104500981D01*
X107032787Y-104473974D01*
X107032789Y-104473972D01*
X107046543Y-104461910D01*
X107101924Y-104391659D01*
X107108412Y-104383646D01*
X107165601Y-104314884D01*
X107173336Y-104301073D01*
X107183137Y-104288640D01*
X107206056Y-104245080D01*
X107224744Y-104209559D01*
X107229728Y-104200380D01*
X107264471Y-104138343D01*
X107264474Y-104138336D01*
X107273410Y-104122380D01*
X107278499Y-104107388D01*
X107285869Y-104093380D01*
X107312392Y-104007963D01*
X107315586Y-103998133D01*
X107344331Y-103913452D01*
X107346602Y-103897786D01*
X107351297Y-103882667D01*
X107361807Y-103793871D01*
X107363162Y-103783573D01*
X107375990Y-103695098D01*
X107372808Y-103614109D01*
X107372500Y-103598445D01*
X107372500Y-97549324D01*
X107392028Y-97426026D01*
X107447478Y-97316493D01*
X107453023Y-97308776D01*
X107453030Y-97308765D01*
X107462588Y-97295463D01*
X107511330Y-97196842D01*
X107564653Y-97088950D01*
X107564654Y-97088947D01*
X107571911Y-97074264D01*
X107643639Y-96838180D01*
X107675845Y-96593550D01*
X107677643Y-96520000D01*
X107657425Y-96274089D01*
X107597316Y-96034783D01*
X107564153Y-95958514D01*
X107505460Y-95823529D01*
X107505459Y-95823527D01*
X107498928Y-95808507D01*
X107364905Y-95601339D01*
X107198846Y-95418842D01*
X107005210Y-95265918D01*
X106910601Y-95213691D01*
X106803533Y-95154586D01*
X106803530Y-95154584D01*
X106789198Y-95146673D01*
X106556610Y-95064309D01*
X106435152Y-95042674D01*
X106329807Y-95023909D01*
X106329805Y-95023909D01*
X106313694Y-95021039D01*
X106297327Y-95020839D01*
X106297326Y-95020839D01*
X106083346Y-95018225D01*
X106066972Y-95018025D01*
X105884666Y-95045921D01*
X105843120Y-95052279D01*
X105823070Y-95055347D01*
X105588540Y-95132003D01*
X105574021Y-95139561D01*
X105574019Y-95139562D01*
X105415738Y-95221958D01*
X105297354Y-95261569D01*
X105172524Y-95262658D01*
X105053467Y-95225120D01*
X104951837Y-95152628D01*
X104877583Y-95052279D01*
X104837972Y-94933895D01*
X104832500Y-94868041D01*
X104832500Y-90550544D01*
X104852028Y-90427246D01*
X104908702Y-90316018D01*
X104996974Y-90227746D01*
X105108202Y-90171072D01*
X105231500Y-90151544D01*
X105354798Y-90171072D01*
X105432805Y-90206048D01*
X105521433Y-90257838D01*
X105536732Y-90263680D01*
X105536734Y-90263681D01*
X105736636Y-90340016D01*
X105736643Y-90340018D01*
X105751939Y-90345859D01*
X105993726Y-90395052D01*
X106010080Y-90395652D01*
X106010083Y-90395652D01*
X106147733Y-90400699D01*
X106240300Y-90404093D01*
X106485041Y-90372741D01*
X106500720Y-90368037D01*
X106500725Y-90368036D01*
X106646037Y-90324440D01*
X106721374Y-90301838D01*
X106828054Y-90249576D01*
X106928252Y-90200490D01*
X106928257Y-90200487D01*
X106942954Y-90193287D01*
X106969059Y-90174667D01*
X107080777Y-90118967D01*
X107200758Y-90100500D01*
X112722328Y-90100500D01*
X112748421Y-90101354D01*
X112763073Y-90102314D01*
X112789310Y-90104034D01*
X112789312Y-90104034D01*
X112807560Y-90105230D01*
X112825725Y-90103080D01*
X112825726Y-90103080D01*
X112896301Y-90094727D01*
X112906686Y-90093635D01*
X112977494Y-90087128D01*
X112995711Y-90085454D01*
X113010949Y-90081156D01*
X113026667Y-90079296D01*
X113112026Y-90052792D01*
X113121997Y-90049838D01*
X113208064Y-90025565D01*
X113222264Y-90018562D01*
X113237379Y-90013869D01*
X113253558Y-90005357D01*
X113253572Y-90005351D01*
X113316466Y-89972260D01*
X113325775Y-89967516D01*
X113389536Y-89936073D01*
X113405947Y-89927980D01*
X113418633Y-89918507D01*
X113432641Y-89911137D01*
X113502869Y-89855774D01*
X113511114Y-89849448D01*
X113568075Y-89806913D01*
X113568077Y-89806911D01*
X113582733Y-89795967D01*
X113637763Y-89736436D01*
X113648621Y-89725143D01*
X114602926Y-88770837D01*
X114621984Y-88752987D01*
X114652789Y-88725972D01*
X114652790Y-88725971D01*
X114666543Y-88713910D01*
X114721886Y-88643708D01*
X114728458Y-88635593D01*
X114773902Y-88580952D01*
X114773907Y-88580945D01*
X114785602Y-88566883D01*
X114793337Y-88553072D01*
X114803137Y-88540640D01*
X114811650Y-88524460D01*
X114811655Y-88524452D01*
X114844763Y-88461524D01*
X114849746Y-88452346D01*
X114870500Y-88415287D01*
X114893410Y-88374379D01*
X114898498Y-88359389D01*
X114905869Y-88345380D01*
X114912173Y-88325080D01*
X114932373Y-88260024D01*
X114935601Y-88250088D01*
X114936458Y-88247565D01*
X114964331Y-88165452D01*
X114966603Y-88149786D01*
X114971297Y-88134667D01*
X114981809Y-88045851D01*
X114983162Y-88035577D01*
X114993366Y-87965203D01*
X114993366Y-87965201D01*
X114995991Y-87947098D01*
X114992808Y-87866084D01*
X114992500Y-87850420D01*
X114992500Y-81841670D01*
X114993354Y-81815573D01*
X114996034Y-81774690D01*
X114996034Y-81774687D01*
X114997230Y-81756440D01*
X114989600Y-81691970D01*
X114986727Y-81667699D01*
X114985635Y-81657314D01*
X114979128Y-81586506D01*
X114977454Y-81568289D01*
X114973156Y-81553051D01*
X114971296Y-81537333D01*
X114944794Y-81451981D01*
X114941828Y-81441967D01*
X114922529Y-81373535D01*
X114922527Y-81373529D01*
X114917565Y-81355936D01*
X114910563Y-81341737D01*
X114905869Y-81326620D01*
X114864245Y-81247506D01*
X114859536Y-81238264D01*
X114819980Y-81158053D01*
X114810507Y-81145368D01*
X114803137Y-81131359D01*
X114747774Y-81061131D01*
X114741448Y-81052886D01*
X114698913Y-80995925D01*
X114698911Y-80995923D01*
X114687967Y-80981267D01*
X114628422Y-80926224D01*
X114617156Y-80915392D01*
X113408825Y-79707061D01*
X113390979Y-79688006D01*
X113363968Y-79657206D01*
X113363966Y-79657205D01*
X113351910Y-79643457D01*
X113281708Y-79588114D01*
X113273593Y-79581542D01*
X113218952Y-79536098D01*
X113218945Y-79536093D01*
X113204883Y-79524398D01*
X113191072Y-79516663D01*
X113178640Y-79506863D01*
X113162460Y-79498350D01*
X113162452Y-79498345D01*
X113099524Y-79465237D01*
X113090346Y-79460254D01*
X113012379Y-79416590D01*
X112997389Y-79411502D01*
X112983380Y-79404131D01*
X112965903Y-79398704D01*
X112965900Y-79398703D01*
X112898024Y-79377627D01*
X112888105Y-79374404D01*
X112803452Y-79345669D01*
X112787786Y-79343397D01*
X112772667Y-79338703D01*
X112683851Y-79328191D01*
X112673577Y-79326838D01*
X112603203Y-79316634D01*
X112603201Y-79316634D01*
X112585098Y-79314009D01*
X112566821Y-79314727D01*
X112566820Y-79314727D01*
X112504084Y-79317192D01*
X112488420Y-79317500D01*
X110287535Y-79317500D01*
X110164237Y-79297972D01*
X110053009Y-79241298D01*
X109964737Y-79153026D01*
X109908063Y-79041798D01*
X109888535Y-78918500D01*
X109908063Y-78795202D01*
X109964737Y-78683974D01*
X110005399Y-78636365D01*
X110362398Y-78279365D01*
X110463391Y-78205989D01*
X110582116Y-78167412D01*
X110644534Y-78162500D01*
X110732149Y-78162500D01*
X110855447Y-78182028D01*
X110933455Y-78217005D01*
X111095292Y-78311575D01*
X111095295Y-78311577D01*
X111109433Y-78319838D01*
X111124732Y-78325680D01*
X111124734Y-78325681D01*
X111324636Y-78402016D01*
X111324643Y-78402018D01*
X111339939Y-78407859D01*
X111581726Y-78457052D01*
X111598080Y-78457652D01*
X111598083Y-78457652D01*
X111735733Y-78462699D01*
X111828300Y-78466093D01*
X112073041Y-78434741D01*
X112088720Y-78430037D01*
X112088725Y-78430036D01*
X112224191Y-78389394D01*
X112309374Y-78363838D01*
X112367119Y-78335549D01*
X112516252Y-78262490D01*
X112516257Y-78262487D01*
X112530954Y-78255287D01*
X112600067Y-78205989D01*
X112718503Y-78121510D01*
X112718508Y-78121506D01*
X112731829Y-78112004D01*
X112847674Y-77996563D01*
X112895015Y-77949387D01*
X112895017Y-77949384D01*
X112906605Y-77937837D01*
X112925027Y-77912201D01*
X113041031Y-77750763D01*
X113050588Y-77737463D01*
X113077452Y-77683109D01*
X113152653Y-77530950D01*
X113152654Y-77530947D01*
X113159911Y-77516264D01*
X113231639Y-77280180D01*
X113263845Y-77035550D01*
X113264674Y-77001641D01*
X113265384Y-76972610D01*
X113265384Y-76972603D01*
X113265643Y-76962000D01*
X113245425Y-76716089D01*
X113215240Y-76595915D01*
X113189304Y-76492659D01*
X113189303Y-76492656D01*
X113185316Y-76476783D01*
X113164098Y-76427984D01*
X113093460Y-76265529D01*
X113093459Y-76265527D01*
X113086928Y-76250507D01*
X113024491Y-76153995D01*
X112973916Y-76039866D01*
X112960500Y-75937269D01*
X112960500Y-67109672D01*
X112961354Y-67083576D01*
X112964034Y-67042690D01*
X112964034Y-67042688D01*
X112965230Y-67024440D01*
X112962635Y-67002512D01*
X112954727Y-66935699D01*
X112953635Y-66925314D01*
X112947128Y-66854506D01*
X112945454Y-66836289D01*
X112941156Y-66821051D01*
X112939296Y-66805333D01*
X112912792Y-66719974D01*
X112909833Y-66709986D01*
X112905761Y-66695547D01*
X112885565Y-66623936D01*
X112878562Y-66609736D01*
X112873869Y-66594621D01*
X112865357Y-66578442D01*
X112865351Y-66578428D01*
X112832260Y-66515534D01*
X112827516Y-66506225D01*
X112796073Y-66442464D01*
X112787980Y-66426053D01*
X112778507Y-66413367D01*
X112771137Y-66399359D01*
X112715774Y-66329131D01*
X112709448Y-66320886D01*
X112666913Y-66263925D01*
X112666911Y-66263923D01*
X112655967Y-66249267D01*
X112596422Y-66194224D01*
X112585156Y-66183392D01*
X110375829Y-63974066D01*
X110357981Y-63955009D01*
X110330972Y-63924211D01*
X110330971Y-63924210D01*
X110318910Y-63910457D01*
X110248708Y-63855114D01*
X110240593Y-63848542D01*
X110185952Y-63803098D01*
X110185945Y-63803093D01*
X110171883Y-63791398D01*
X110158072Y-63783663D01*
X110145640Y-63773863D01*
X110129460Y-63765350D01*
X110129452Y-63765345D01*
X110066524Y-63732237D01*
X110057346Y-63727254D01*
X110030683Y-63712322D01*
X109979379Y-63683590D01*
X109964389Y-63678502D01*
X109950380Y-63671131D01*
X109932903Y-63665704D01*
X109932900Y-63665703D01*
X109865024Y-63644627D01*
X109855105Y-63641404D01*
X109770452Y-63612669D01*
X109754786Y-63610397D01*
X109739667Y-63605703D01*
X109721505Y-63603553D01*
X109721503Y-63603553D01*
X109697979Y-63600769D01*
X109577831Y-63566885D01*
X109474034Y-63497530D01*
X109396750Y-63399496D01*
X109353542Y-63282377D01*
X109346040Y-63193047D01*
X109346193Y-63187731D01*
X109346226Y-63187589D01*
X109346500Y-63182837D01*
X109346499Y-61307164D01*
X109346226Y-61302411D01*
X109336666Y-61260999D01*
X109310844Y-61149154D01*
X109305827Y-61127423D01*
X109268829Y-61050889D01*
X109237373Y-60985818D01*
X109237373Y-60985817D01*
X109227664Y-60965734D01*
X109115620Y-60825380D01*
X108975266Y-60713336D01*
X108813577Y-60635173D01*
X108773883Y-60626009D01*
X108655054Y-60598575D01*
X108655051Y-60598575D01*
X108638589Y-60594774D01*
X108633837Y-60594500D01*
X107697681Y-60594500D01*
X106758164Y-60594501D01*
X106753411Y-60594774D01*
X106736932Y-60598578D01*
X106736928Y-60598579D01*
X106600154Y-60630156D01*
X106578423Y-60635173D01*
X106416734Y-60713336D01*
X106276380Y-60825380D01*
X106262461Y-60842816D01*
X106262459Y-60842818D01*
X106221257Y-60894430D01*
X106129071Y-60978606D01*
X106015386Y-61030175D01*
X105909432Y-61044500D01*
X105448672Y-61044500D01*
X105422579Y-61043646D01*
X105407927Y-61042686D01*
X105381690Y-61040966D01*
X105381688Y-61040966D01*
X105363440Y-61039770D01*
X105345275Y-61041920D01*
X105345274Y-61041920D01*
X105274699Y-61050273D01*
X105264314Y-61051365D01*
X105200734Y-61057208D01*
X105175289Y-61059546D01*
X105160051Y-61063844D01*
X105144333Y-61065704D01*
X105058974Y-61092208D01*
X105049003Y-61095162D01*
X104962936Y-61119435D01*
X104948736Y-61126438D01*
X104933621Y-61131131D01*
X104917442Y-61139643D01*
X104917428Y-61139649D01*
X104854534Y-61172740D01*
X104845235Y-61177479D01*
X104765053Y-61217020D01*
X104752367Y-61226493D01*
X104738359Y-61233863D01*
X104668131Y-61289226D01*
X104659886Y-61295552D01*
X104646507Y-61305543D01*
X104588267Y-61349033D01*
X104533224Y-61408578D01*
X104522392Y-61419844D01*
X103329061Y-62613175D01*
X103310006Y-62631021D01*
X103296110Y-62643208D01*
X103265457Y-62670090D01*
X103254136Y-62684451D01*
X103210114Y-62740292D01*
X103203542Y-62748407D01*
X103158098Y-62803048D01*
X103158093Y-62803055D01*
X103146398Y-62817117D01*
X103138663Y-62830928D01*
X103128863Y-62843360D01*
X103120350Y-62859540D01*
X103120345Y-62859548D01*
X103087237Y-62922476D01*
X103082258Y-62931646D01*
X103038590Y-63009621D01*
X103033502Y-63024611D01*
X103026131Y-63038620D01*
X103020704Y-63056097D01*
X103020703Y-63056100D01*
X102999627Y-63123976D01*
X102996404Y-63133895D01*
X102967669Y-63218548D01*
X102965397Y-63234214D01*
X102960703Y-63249333D01*
X102950191Y-63338149D01*
X102948838Y-63348423D01*
X102936009Y-63436902D01*
X102936727Y-63455179D01*
X102936727Y-63455180D01*
X102939192Y-63517916D01*
X102939500Y-63533580D01*
X102939500Y-70965465D01*
X102919972Y-71088763D01*
X102863298Y-71199991D01*
X102822636Y-71247600D01*
X102256602Y-71813635D01*
X102155609Y-71887011D01*
X102036884Y-71925588D01*
X101974466Y-71930500D01*
X101048790Y-71930500D01*
X100925492Y-71910972D01*
X100814264Y-71854298D01*
X100725992Y-71766026D01*
X100669318Y-71654798D01*
X100649790Y-71531500D01*
X100669318Y-71408202D01*
X100684997Y-71367624D01*
X100750580Y-71222034D01*
X100750582Y-71222028D01*
X100756661Y-71208534D01*
X100775790Y-71140710D01*
X100825286Y-70965209D01*
X100825286Y-70965208D01*
X100829302Y-70950969D01*
X100832085Y-70929098D01*
X100861811Y-70695434D01*
X100861812Y-70695426D01*
X100863075Y-70685495D01*
X100865549Y-70591000D01*
X100845717Y-70324123D01*
X100786655Y-70063109D01*
X100689662Y-69813691D01*
X100556868Y-69581350D01*
X100545655Y-69567127D01*
X100544209Y-69564543D01*
X100539424Y-69557450D01*
X100540014Y-69557052D01*
X100484660Y-69458209D01*
X100460307Y-69335773D01*
X100474980Y-69211804D01*
X100523423Y-69104264D01*
X100585294Y-69008074D01*
X100646747Y-68912534D01*
X100756661Y-68668534D01*
X100775813Y-68600629D01*
X100825286Y-68425209D01*
X100825286Y-68425208D01*
X100829302Y-68410969D01*
X100834075Y-68373458D01*
X100861811Y-68155434D01*
X100861812Y-68155426D01*
X100863075Y-68145495D01*
X100865549Y-68051000D01*
X100845717Y-67784123D01*
X100786655Y-67523109D01*
X100763840Y-67464440D01*
X100695030Y-67287494D01*
X100695028Y-67287490D01*
X100689662Y-67273691D01*
X100556868Y-67041350D01*
X100545655Y-67027127D01*
X100544209Y-67024543D01*
X100539424Y-67017450D01*
X100540014Y-67017052D01*
X100484660Y-66918209D01*
X100460307Y-66795773D01*
X100474980Y-66671804D01*
X100523423Y-66564264D01*
X100557738Y-66510915D01*
X100646747Y-66372534D01*
X100756661Y-66128534D01*
X100775813Y-66060629D01*
X100825286Y-65885209D01*
X100825286Y-65885208D01*
X100829302Y-65870969D01*
X100838857Y-65795868D01*
X100861811Y-65615434D01*
X100861812Y-65615426D01*
X100863075Y-65605495D01*
X100865549Y-65511000D01*
X100845717Y-65244123D01*
X100786655Y-64983109D01*
X100769149Y-64938091D01*
X100695030Y-64747494D01*
X100695028Y-64747490D01*
X100689662Y-64733691D01*
X100556868Y-64501350D01*
X100547700Y-64489720D01*
X100545329Y-64486712D01*
X100543654Y-64483722D01*
X100539424Y-64477450D01*
X100539945Y-64477098D01*
X100484332Y-64377794D01*
X100459979Y-64255358D01*
X100474652Y-64131389D01*
X100523096Y-64023847D01*
X100638295Y-63844750D01*
X100652388Y-63818792D01*
X100750105Y-63601868D01*
X100760208Y-63574110D01*
X100824791Y-63345119D01*
X100830679Y-63316176D01*
X100861310Y-63075393D01*
X100862835Y-63055466D01*
X100864785Y-62981008D01*
X100864305Y-62961020D01*
X100846317Y-62718964D01*
X100841952Y-62689756D01*
X100789442Y-62457695D01*
X100780808Y-62429454D01*
X100694577Y-62207711D01*
X100681859Y-62181048D01*
X100563797Y-61974482D01*
X100547287Y-61950006D01*
X100545372Y-61947576D01*
X100544019Y-61945160D01*
X100539008Y-61937731D01*
X100539625Y-61937315D01*
X100484375Y-61838659D01*
X100460020Y-61716223D01*
X100474692Y-61592254D01*
X100523137Y-61484708D01*
X100638736Y-61304989D01*
X100638738Y-61304986D01*
X100646747Y-61292534D01*
X100756661Y-61048534D01*
X100790811Y-60927450D01*
X100825286Y-60805209D01*
X100825286Y-60805208D01*
X100829302Y-60790969D01*
X100839179Y-60713336D01*
X100861811Y-60535434D01*
X100861812Y-60535426D01*
X100863075Y-60525495D01*
X100865549Y-60431000D01*
X100845717Y-60164123D01*
X100786655Y-59903109D01*
X100689662Y-59653691D01*
X100556868Y-59421350D01*
X100391190Y-59211189D01*
X100196269Y-59027825D01*
X100037490Y-58917676D01*
X99988549Y-58883724D01*
X99988545Y-58883721D01*
X99976385Y-58875286D01*
X99948187Y-58861380D01*
X99749649Y-58763472D01*
X99736371Y-58756924D01*
X99722275Y-58752412D01*
X99722273Y-58752411D01*
X99495602Y-58679853D01*
X99495601Y-58679853D01*
X99481497Y-58675338D01*
X99217364Y-58632322D01*
X99202564Y-58632128D01*
X99202561Y-58632128D01*
X99051361Y-58630149D01*
X98949774Y-58628819D01*
X98684605Y-58664907D01*
X98629800Y-58680881D01*
X98441903Y-58735647D01*
X98441899Y-58735648D01*
X98427683Y-58739792D01*
X98184652Y-58851831D01*
X97960851Y-58998562D01*
X97949812Y-59008415D01*
X97949809Y-59008417D01*
X97772239Y-59166904D01*
X97772235Y-59166909D01*
X97761197Y-59176760D01*
X97590075Y-59382512D01*
X97451244Y-59611298D01*
X97347755Y-59858091D01*
X97281881Y-60117470D01*
X97255070Y-60383736D01*
X97267909Y-60651041D01*
X97320118Y-60913512D01*
X97325121Y-60927447D01*
X97325122Y-60927450D01*
X97362004Y-61030175D01*
X97410549Y-61165383D01*
X97537215Y-61401121D01*
X97554749Y-61424602D01*
X97581221Y-61460052D01*
X97639345Y-61570529D01*
X97660486Y-61693561D01*
X97642573Y-61817104D01*
X97590236Y-61922654D01*
X97590483Y-61922804D01*
X97588726Y-61925700D01*
X97586356Y-61930479D01*
X97582803Y-61935460D01*
X97459371Y-62138869D01*
X97445965Y-62165181D01*
X97353957Y-62384595D01*
X97344586Y-62412604D01*
X97286020Y-62643208D01*
X97280893Y-62672288D01*
X97257055Y-62909017D01*
X97256282Y-62938532D01*
X97267698Y-63176199D01*
X97271296Y-63205499D01*
X97317713Y-63438852D01*
X97325606Y-63467316D01*
X97406005Y-63691245D01*
X97418017Y-63718223D01*
X97530626Y-63927798D01*
X97546506Y-63952727D01*
X97581211Y-63999202D01*
X97639336Y-64109679D01*
X97660477Y-64232710D01*
X97642564Y-64356253D01*
X97589920Y-64462418D01*
X97590075Y-64462512D01*
X97582395Y-64475168D01*
X97582393Y-64475171D01*
X97506132Y-64600846D01*
X97451244Y-64691298D01*
X97445518Y-64704953D01*
X97404949Y-64801700D01*
X97347755Y-64938091D01*
X97344111Y-64952438D01*
X97344111Y-64952439D01*
X97287881Y-65173846D01*
X97281881Y-65197470D01*
X97255070Y-65463736D01*
X97267909Y-65731041D01*
X97320118Y-65993512D01*
X97325121Y-66007447D01*
X97325122Y-66007450D01*
X97338604Y-66045000D01*
X97410549Y-66245383D01*
X97537215Y-66481121D01*
X97575367Y-66532213D01*
X97580905Y-66539629D01*
X97639030Y-66650107D01*
X97660171Y-66773138D01*
X97642258Y-66896681D01*
X97589849Y-67002375D01*
X97590075Y-67002512D01*
X97565694Y-67042690D01*
X97460716Y-67215689D01*
X97451244Y-67231298D01*
X97347755Y-67478091D01*
X97344111Y-67492438D01*
X97344111Y-67492439D01*
X97286690Y-67718535D01*
X97281881Y-67737470D01*
X97255070Y-68003736D01*
X97267909Y-68271041D01*
X97320118Y-68533512D01*
X97325121Y-68547447D01*
X97325122Y-68547450D01*
X97335616Y-68576678D01*
X97410549Y-68785383D01*
X97537215Y-69021121D01*
X97575367Y-69072213D01*
X97580905Y-69079629D01*
X97639030Y-69190107D01*
X97660171Y-69313138D01*
X97642258Y-69436681D01*
X97589849Y-69542375D01*
X97590075Y-69542512D01*
X97558709Y-69594201D01*
X97460716Y-69755689D01*
X97451244Y-69771298D01*
X97347755Y-70018091D01*
X97344111Y-70032438D01*
X97344111Y-70032439D01*
X97310387Y-70165229D01*
X97281881Y-70277470D01*
X97255070Y-70543736D01*
X97267909Y-70811041D01*
X97320118Y-71073512D01*
X97325121Y-71087447D01*
X97325122Y-71087450D01*
X97363482Y-71194292D01*
X97410549Y-71325383D01*
X97417555Y-71338422D01*
X97417556Y-71338424D01*
X97419822Y-71342641D01*
X97421235Y-71346688D01*
X97423579Y-71351952D01*
X97423142Y-71352147D01*
X97460980Y-71460496D01*
X97463705Y-71585301D01*
X97427730Y-71704840D01*
X97356575Y-71807410D01*
X97257208Y-71882973D01*
X97139353Y-71924131D01*
X97068349Y-71930500D01*
X92530673Y-71930500D01*
X92504578Y-71929646D01*
X92463690Y-71926966D01*
X92463689Y-71926966D01*
X92445440Y-71925770D01*
X92356641Y-71936280D01*
X92346294Y-71937368D01*
X92257289Y-71945546D01*
X92242056Y-71949842D01*
X92226333Y-71951703D01*
X92208867Y-71957126D01*
X92208868Y-71957126D01*
X92140949Y-71978215D01*
X92130937Y-71981180D01*
X92062546Y-72000468D01*
X92062542Y-72000470D01*
X92044936Y-72005435D01*
X92030736Y-72012438D01*
X92015621Y-72017131D01*
X91999423Y-72025653D01*
X91999421Y-72025654D01*
X91936556Y-72058729D01*
X91927279Y-72063457D01*
X91847053Y-72103020D01*
X91834365Y-72112495D01*
X91820360Y-72119863D01*
X91805998Y-72131185D01*
X91750178Y-72175190D01*
X91741899Y-72181542D01*
X91670267Y-72235033D01*
X91657854Y-72248461D01*
X91657851Y-72248464D01*
X91615224Y-72294577D01*
X91604366Y-72305871D01*
X90375066Y-73535171D01*
X90356009Y-73553019D01*
X90311457Y-73592090D01*
X90300131Y-73606457D01*
X90256114Y-73662292D01*
X90249542Y-73670407D01*
X90204098Y-73725048D01*
X90204093Y-73725055D01*
X90192398Y-73739117D01*
X90184663Y-73752928D01*
X90174863Y-73765360D01*
X90166350Y-73781540D01*
X90166345Y-73781548D01*
X90133237Y-73844476D01*
X90128258Y-73853646D01*
X90084590Y-73931621D01*
X90079502Y-73946611D01*
X90072131Y-73960620D01*
X90066704Y-73978097D01*
X90066703Y-73978100D01*
X90045627Y-74045976D01*
X90042404Y-74055895D01*
X90013669Y-74140548D01*
X90011397Y-74156214D01*
X90006703Y-74171333D01*
X89996191Y-74260149D01*
X89994838Y-74270423D01*
X89984634Y-74340797D01*
X89982009Y-74358902D01*
X89982727Y-74377179D01*
X89982727Y-74377180D01*
X89985192Y-74439916D01*
X89985500Y-74455580D01*
X89985500Y-105399897D01*
X89965972Y-105523195D01*
X89916113Y-105624744D01*
X89876851Y-105682300D01*
X89772965Y-105906104D01*
X89768589Y-105921883D01*
X89768588Y-105921886D01*
X89758821Y-105957106D01*
X89707026Y-106143871D01*
X89680806Y-106389214D01*
X89682317Y-106415418D01*
X89691615Y-106576660D01*
X89695010Y-106635545D01*
X89749255Y-106876249D01*
X89751560Y-106881926D01*
X89769012Y-107000105D01*
X89748195Y-107123191D01*
X89690361Y-107233821D01*
X89652170Y-107278067D01*
X89359066Y-107571171D01*
X89340008Y-107589020D01*
X89295457Y-107628090D01*
X89284131Y-107642457D01*
X89240114Y-107698292D01*
X89233542Y-107706407D01*
X89188098Y-107761048D01*
X89188093Y-107761055D01*
X89176398Y-107775117D01*
X89168663Y-107788928D01*
X89158863Y-107801360D01*
X89150350Y-107817540D01*
X89150345Y-107817548D01*
X89117237Y-107880476D01*
X89112258Y-107889646D01*
X89068590Y-107967621D01*
X89063502Y-107982611D01*
X89056131Y-107996620D01*
X89050704Y-108014097D01*
X89050703Y-108014100D01*
X89029627Y-108081976D01*
X89026404Y-108091895D01*
X88997669Y-108176548D01*
X88995397Y-108192214D01*
X88990703Y-108207333D01*
X88980191Y-108296149D01*
X88978838Y-108306423D01*
X88974542Y-108336053D01*
X88966009Y-108394902D01*
X88966727Y-108413179D01*
X88966727Y-108413180D01*
X88969192Y-108475916D01*
X88969500Y-108491580D01*
X88969500Y-108531069D01*
X88949972Y-108654367D01*
X88893298Y-108765595D01*
X88805026Y-108853867D01*
X88693798Y-108910541D01*
X88570500Y-108930069D01*
X88447202Y-108910541D01*
X88369795Y-108875914D01*
X88317717Y-108845604D01*
X88317709Y-108845600D01*
X88303862Y-108837541D01*
X88070328Y-108747895D01*
X87825464Y-108696741D01*
X87616134Y-108687235D01*
X87591582Y-108686120D01*
X87575572Y-108685393D01*
X87327080Y-108714145D01*
X87311665Y-108718507D01*
X87101806Y-108777890D01*
X87101800Y-108777892D01*
X87086382Y-108782255D01*
X87071859Y-108789027D01*
X87071857Y-108789028D01*
X86874192Y-108881201D01*
X86874190Y-108881202D01*
X86859670Y-108887973D01*
X86846415Y-108896981D01*
X86834889Y-108903529D01*
X86718036Y-108947453D01*
X86593330Y-108953117D01*
X86472977Y-108919968D01*
X86368759Y-108851250D01*
X86290876Y-108753690D01*
X86256749Y-108674923D01*
X86242800Y-108630000D01*
X86239833Y-108619985D01*
X86220528Y-108551533D01*
X86220527Y-108551531D01*
X86215565Y-108533936D01*
X86208563Y-108519737D01*
X86203869Y-108504620D01*
X86162245Y-108425506D01*
X86157536Y-108416264D01*
X86117980Y-108336053D01*
X86108507Y-108323368D01*
X86101137Y-108309359D01*
X86081124Y-108283972D01*
X86045805Y-108239171D01*
X86039469Y-108230914D01*
X85985967Y-108159267D01*
X85972535Y-108146851D01*
X85972530Y-108146845D01*
X85926423Y-108104224D01*
X85915129Y-108093366D01*
X85096911Y-107275148D01*
X85023535Y-107174154D01*
X84984959Y-107055429D01*
X84984959Y-106930595D01*
X84997279Y-106877020D01*
X85032878Y-106759851D01*
X85032879Y-106759848D01*
X85037639Y-106744180D01*
X85069845Y-106499550D01*
X85071643Y-106426000D01*
X85051425Y-106180089D01*
X84994560Y-105953697D01*
X84983463Y-105829359D01*
X85011332Y-105707675D01*
X85075440Y-105600558D01*
X85099403Y-105574361D01*
X85724400Y-104949364D01*
X85825394Y-104875988D01*
X85944119Y-104837412D01*
X86006536Y-104832500D01*
X87596420Y-104832500D01*
X87612084Y-104832808D01*
X87674820Y-104835273D01*
X87674821Y-104835273D01*
X87693098Y-104835991D01*
X87711201Y-104833366D01*
X87711204Y-104833366D01*
X87760838Y-104826170D01*
X87781577Y-104823715D01*
X87800285Y-104821996D01*
X87849711Y-104817454D01*
X87867311Y-104812491D01*
X87880400Y-104810065D01*
X87893350Y-104806956D01*
X87911452Y-104804331D01*
X87946094Y-104792572D01*
X87976262Y-104782332D01*
X87996206Y-104776139D01*
X88062064Y-104757565D01*
X88078469Y-104749475D01*
X88090880Y-104744711D01*
X88103052Y-104739292D01*
X88120379Y-104733410D01*
X88137599Y-104723767D01*
X88180088Y-104699972D01*
X88198552Y-104690257D01*
X88259947Y-104659980D01*
X88274610Y-104649031D01*
X88285955Y-104642078D01*
X88296922Y-104634541D01*
X88312884Y-104625602D01*
X88326946Y-104613907D01*
X88326950Y-104613904D01*
X88365500Y-104581842D01*
X88381899Y-104568915D01*
X88422070Y-104538917D01*
X88422073Y-104538914D01*
X88436733Y-104527967D01*
X88449149Y-104514535D01*
X88459022Y-104505646D01*
X88468448Y-104496220D01*
X88482518Y-104484518D01*
X88526288Y-104431891D01*
X88540044Y-104416206D01*
X88574082Y-104379384D01*
X88574083Y-104379383D01*
X88586501Y-104365949D01*
X88596262Y-104350479D01*
X88604362Y-104339923D01*
X88611904Y-104328950D01*
X88623602Y-104314884D01*
X88657050Y-104255159D01*
X88667725Y-104237216D01*
X88669237Y-104234821D01*
X88704236Y-104179350D01*
X88711014Y-104162361D01*
X88717061Y-104150493D01*
X88722473Y-104138337D01*
X88731410Y-104122379D01*
X88753409Y-104057572D01*
X88760633Y-104037989D01*
X88779217Y-103991408D01*
X88779217Y-103991407D01*
X88785994Y-103974421D01*
X88789563Y-103956481D01*
X88793345Y-103943712D01*
X88796452Y-103930772D01*
X88802331Y-103913452D01*
X88812153Y-103845709D01*
X88815691Y-103825124D01*
X88825469Y-103775969D01*
X88825470Y-103775964D01*
X88829038Y-103758024D01*
X88829277Y-103739734D01*
X88831190Y-103721537D01*
X88831547Y-103721575D01*
X88831790Y-103718488D01*
X88831305Y-103718447D01*
X88832304Y-103706732D01*
X88833991Y-103695098D01*
X88835643Y-103632000D01*
X88833218Y-103605609D01*
X88831579Y-103563900D01*
X88831926Y-103537406D01*
X88823884Y-103490604D01*
X88819797Y-103459554D01*
X88817128Y-103430506D01*
X88817128Y-103430505D01*
X88815454Y-103412289D01*
X88808264Y-103386795D01*
X88799047Y-103346059D01*
X88797661Y-103337991D01*
X88797660Y-103337988D01*
X88794562Y-103319957D01*
X88778131Y-103275417D01*
X88768450Y-103245624D01*
X88755565Y-103199936D01*
X88747473Y-103183528D01*
X88747471Y-103183522D01*
X88743850Y-103176179D01*
X88727365Y-103137810D01*
X88724527Y-103130118D01*
X88724526Y-103130117D01*
X88718196Y-103112957D01*
X88693920Y-103072153D01*
X88678974Y-103044625D01*
X88666073Y-103018463D01*
X88666070Y-103018458D01*
X88657980Y-103002053D01*
X88642130Y-102980828D01*
X88618933Y-102946111D01*
X88614736Y-102939057D01*
X88605386Y-102923341D01*
X88574085Y-102887649D01*
X88554370Y-102863303D01*
X88536912Y-102839924D01*
X88525967Y-102825267D01*
X88506510Y-102807281D01*
X88477380Y-102777377D01*
X88471975Y-102771214D01*
X88471973Y-102771212D01*
X88459910Y-102757457D01*
X88422616Y-102728057D01*
X88398802Y-102707717D01*
X88398708Y-102707630D01*
X88363949Y-102675499D01*
X88341540Y-102661360D01*
X88307445Y-102637264D01*
X88286640Y-102620863D01*
X88244627Y-102598759D01*
X88217509Y-102583103D01*
X88177350Y-102557764D01*
X88152753Y-102547951D01*
X88114821Y-102530464D01*
X88107565Y-102526646D01*
X88107562Y-102526645D01*
X88091380Y-102518131D01*
X88073917Y-102512709D01*
X88073908Y-102512705D01*
X88046043Y-102504053D01*
X88016509Y-102493595D01*
X87989410Y-102482784D01*
X87972421Y-102476006D01*
X87946447Y-102470839D01*
X87905972Y-102460560D01*
X87898141Y-102458128D01*
X87898133Y-102458126D01*
X87880667Y-102452703D01*
X87833515Y-102447122D01*
X87802577Y-102442222D01*
X87756024Y-102432962D01*
X87724058Y-102432544D01*
X87711866Y-102432384D01*
X87707732Y-102432235D01*
X87701524Y-102431500D01*
X87646966Y-102431500D01*
X87641743Y-102431466D01*
X87627342Y-102431277D01*
X87535406Y-102430074D01*
X87528342Y-102431288D01*
X87522942Y-102431500D01*
X85397673Y-102431500D01*
X85371578Y-102430646D01*
X85330690Y-102427966D01*
X85330689Y-102427966D01*
X85312440Y-102426770D01*
X85223641Y-102437280D01*
X85213294Y-102438368D01*
X85124289Y-102446546D01*
X85109056Y-102450842D01*
X85093333Y-102452703D01*
X85068029Y-102460560D01*
X85007949Y-102479215D01*
X84997937Y-102482180D01*
X84929546Y-102501468D01*
X84929542Y-102501470D01*
X84911936Y-102506435D01*
X84897736Y-102513438D01*
X84882621Y-102518131D01*
X84866423Y-102526653D01*
X84866421Y-102526654D01*
X84833824Y-102543804D01*
X84804885Y-102559030D01*
X84803556Y-102559729D01*
X84794279Y-102564457D01*
X84714053Y-102604020D01*
X84701365Y-102613495D01*
X84687360Y-102620863D01*
X84672998Y-102632185D01*
X84672751Y-102632380D01*
X84618055Y-102675499D01*
X84617178Y-102676190D01*
X84608899Y-102682542D01*
X84537267Y-102736033D01*
X84524854Y-102749461D01*
X84524851Y-102749464D01*
X84482224Y-102795577D01*
X84471366Y-102806871D01*
X83842478Y-103435759D01*
X83741484Y-103509135D01*
X83622759Y-103547711D01*
X83497925Y-103547711D01*
X83379200Y-103509135D01*
X83313315Y-103466958D01*
X83309700Y-103464108D01*
X83301593Y-103457542D01*
X83246952Y-103412098D01*
X83246945Y-103412093D01*
X83232883Y-103400398D01*
X83219072Y-103392663D01*
X83206640Y-103382863D01*
X83190460Y-103374350D01*
X83190452Y-103374345D01*
X83127524Y-103341237D01*
X83118346Y-103336254D01*
X83118003Y-103336062D01*
X83040379Y-103292590D01*
X83025389Y-103287502D01*
X83011380Y-103280131D01*
X82993903Y-103274704D01*
X82993900Y-103274703D01*
X82926024Y-103253627D01*
X82916105Y-103250404D01*
X82831452Y-103221669D01*
X82815786Y-103219397D01*
X82800667Y-103214703D01*
X82711851Y-103204191D01*
X82701577Y-103202838D01*
X82631203Y-103192634D01*
X82631201Y-103192634D01*
X82613098Y-103190009D01*
X82594821Y-103190727D01*
X82594820Y-103190727D01*
X82532084Y-103193192D01*
X82516420Y-103193500D01*
X72544536Y-103193500D01*
X72421238Y-103173972D01*
X72310010Y-103117298D01*
X72262400Y-103076636D01*
X70151364Y-100965601D01*
X70077988Y-100864607D01*
X70039412Y-100745882D01*
X70034500Y-100683465D01*
X70034500Y-94285534D01*
X70054028Y-94162236D01*
X70110702Y-94051008D01*
X70198974Y-93962736D01*
X70310202Y-93906062D01*
X70433500Y-93886534D01*
X70556798Y-93906062D01*
X70668026Y-93962736D01*
X70715627Y-94003390D01*
X70974179Y-94261942D01*
X70992013Y-94280984D01*
X71019031Y-94311793D01*
X71019035Y-94311797D01*
X71031090Y-94325543D01*
X71101341Y-94380924D01*
X71109354Y-94387412D01*
X71178116Y-94444601D01*
X71191927Y-94452336D01*
X71204360Y-94462137D01*
X71220548Y-94470654D01*
X71220551Y-94470656D01*
X71283441Y-94503744D01*
X71292620Y-94508728D01*
X71354657Y-94543471D01*
X71354664Y-94543474D01*
X71370620Y-94552410D01*
X71385612Y-94557499D01*
X71399620Y-94564869D01*
X71485037Y-94591392D01*
X71494867Y-94594586D01*
X71579548Y-94623331D01*
X71595214Y-94625602D01*
X71610333Y-94630297D01*
X71699129Y-94640807D01*
X71709408Y-94642159D01*
X71730843Y-94645267D01*
X71850058Y-94682285D01*
X71952003Y-94754334D01*
X72026695Y-94854358D01*
X72066821Y-94972568D01*
X72068455Y-95097392D01*
X72041542Y-95194434D01*
X71947755Y-95418091D01*
X71944111Y-95432438D01*
X71944111Y-95432439D01*
X71897725Y-95615085D01*
X71881881Y-95677470D01*
X71855070Y-95943736D01*
X71867909Y-96211041D01*
X71920118Y-96473512D01*
X71925121Y-96487447D01*
X71925122Y-96487450D01*
X71936809Y-96520000D01*
X72010549Y-96725383D01*
X72137215Y-96961121D01*
X72297335Y-97175547D01*
X72307849Y-97185970D01*
X72307852Y-97185973D01*
X72331032Y-97208951D01*
X72487390Y-97363950D01*
X72703205Y-97522192D01*
X72822110Y-97584751D01*
X72926939Y-97639905D01*
X72926942Y-97639906D01*
X72940039Y-97646797D01*
X73192690Y-97735026D01*
X73455606Y-97784943D01*
X73624576Y-97791582D01*
X73708219Y-97794868D01*
X73708222Y-97794868D01*
X73723013Y-97795449D01*
X73737723Y-97793838D01*
X73737724Y-97793838D01*
X73974317Y-97767927D01*
X73974319Y-97767927D01*
X73989035Y-97766315D01*
X74003356Y-97762544D01*
X74003359Y-97762544D01*
X74233506Y-97701951D01*
X74233507Y-97701951D01*
X74247829Y-97698180D01*
X74421157Y-97623713D01*
X74480108Y-97598386D01*
X74480110Y-97598385D01*
X74493710Y-97592542D01*
X74721275Y-97451720D01*
X74925526Y-97278809D01*
X75016085Y-97175547D01*
X75092212Y-97088741D01*
X75092214Y-97088739D01*
X75101976Y-97077607D01*
X75246747Y-96852534D01*
X75356661Y-96608534D01*
X75363879Y-96582943D01*
X75425286Y-96365209D01*
X75425286Y-96365208D01*
X75429302Y-96350969D01*
X75437006Y-96290417D01*
X75461811Y-96095434D01*
X75461812Y-96095426D01*
X75463075Y-96085495D01*
X75465549Y-95991000D01*
X75445717Y-95724123D01*
X75386655Y-95463109D01*
X75374728Y-95432439D01*
X75295030Y-95227494D01*
X75295028Y-95227490D01*
X75289662Y-95213691D01*
X75156868Y-94981350D01*
X75145655Y-94967127D01*
X75144209Y-94964543D01*
X75139424Y-94957450D01*
X75140014Y-94957052D01*
X75084660Y-94858209D01*
X75060307Y-94735773D01*
X75074980Y-94611804D01*
X75123423Y-94504264D01*
X75198558Y-94387452D01*
X75246747Y-94312534D01*
X75356661Y-94068534D01*
X75375032Y-94003398D01*
X75425286Y-93825209D01*
X75425286Y-93825208D01*
X75429302Y-93810969D01*
X75447104Y-93671041D01*
X75461811Y-93555434D01*
X75461812Y-93555426D01*
X75463075Y-93545495D01*
X75465549Y-93451000D01*
X75445717Y-93184123D01*
X75386655Y-92923109D01*
X75289662Y-92673691D01*
X75156868Y-92441350D01*
X75145655Y-92427127D01*
X75144209Y-92424543D01*
X75139424Y-92417450D01*
X75140014Y-92417052D01*
X75084660Y-92318209D01*
X75060307Y-92195773D01*
X75074980Y-92071804D01*
X75123423Y-91964264D01*
X75178031Y-91879366D01*
X75246747Y-91772534D01*
X75356661Y-91528534D01*
X75365227Y-91498164D01*
X75425286Y-91285209D01*
X75425286Y-91285208D01*
X75429302Y-91270969D01*
X75447104Y-91131041D01*
X75461811Y-91015434D01*
X75461812Y-91015426D01*
X75463075Y-91005495D01*
X75465549Y-90911000D01*
X75445717Y-90644123D01*
X75386655Y-90383109D01*
X75381286Y-90369302D01*
X75295030Y-90147494D01*
X75295028Y-90147490D01*
X75289662Y-90133691D01*
X75169850Y-89924064D01*
X75164213Y-89914201D01*
X75156868Y-89901350D01*
X75145655Y-89887127D01*
X75144209Y-89884543D01*
X75139424Y-89877450D01*
X75140014Y-89877052D01*
X75084660Y-89778209D01*
X75060307Y-89655773D01*
X75074980Y-89531804D01*
X75123423Y-89424264D01*
X75203861Y-89299208D01*
X75246747Y-89232534D01*
X75356661Y-88988534D01*
X75390811Y-88867450D01*
X75425286Y-88745209D01*
X75425286Y-88745208D01*
X75429302Y-88730969D01*
X75431473Y-88713910D01*
X75461811Y-88475434D01*
X75461812Y-88475426D01*
X75463075Y-88465495D01*
X75465549Y-88371000D01*
X75445717Y-88104123D01*
X75386655Y-87843109D01*
X75363840Y-87784440D01*
X75295030Y-87607494D01*
X75295028Y-87607490D01*
X75289662Y-87593691D01*
X75156868Y-87361350D01*
X75145655Y-87347127D01*
X75144209Y-87344543D01*
X75139424Y-87337450D01*
X75140014Y-87337052D01*
X75084660Y-87238209D01*
X75060307Y-87115773D01*
X75074980Y-86991804D01*
X75123423Y-86884264D01*
X75185294Y-86788074D01*
X75246747Y-86692534D01*
X75356661Y-86448534D01*
X75390811Y-86327450D01*
X75425286Y-86205209D01*
X75425286Y-86205208D01*
X75429302Y-86190969D01*
X75438576Y-86118076D01*
X75461811Y-85935434D01*
X75461812Y-85935426D01*
X75463075Y-85925495D01*
X75465549Y-85831000D01*
X75445717Y-85564123D01*
X75386655Y-85303109D01*
X75369149Y-85258091D01*
X75295030Y-85067494D01*
X75295028Y-85067490D01*
X75289662Y-85053691D01*
X75156868Y-84821350D01*
X75145655Y-84807127D01*
X75144209Y-84804543D01*
X75139424Y-84797450D01*
X75140014Y-84797052D01*
X75084660Y-84698209D01*
X75060307Y-84575773D01*
X75074980Y-84451804D01*
X75123423Y-84344264D01*
X75176902Y-84261121D01*
X75246747Y-84152534D01*
X75356661Y-83908534D01*
X75390811Y-83787450D01*
X75425286Y-83665209D01*
X75425286Y-83665208D01*
X75429302Y-83650969D01*
X75431495Y-83633737D01*
X75461811Y-83395434D01*
X75461812Y-83395426D01*
X75463075Y-83385495D01*
X75465549Y-83291000D01*
X75445717Y-83024123D01*
X75386655Y-82763109D01*
X75381286Y-82749302D01*
X75295030Y-82527494D01*
X75295028Y-82527490D01*
X75289662Y-82513691D01*
X75156868Y-82281350D01*
X75145655Y-82267127D01*
X75144209Y-82264543D01*
X75139424Y-82257450D01*
X75140014Y-82257052D01*
X75084660Y-82158209D01*
X75060307Y-82035773D01*
X75074980Y-81911804D01*
X75123423Y-81804264D01*
X75148759Y-81764874D01*
X75246747Y-81612534D01*
X75356661Y-81368534D01*
X75365566Y-81336962D01*
X75425286Y-81125209D01*
X75425286Y-81125208D01*
X75429302Y-81110969D01*
X75435638Y-81061170D01*
X75461811Y-80855434D01*
X75461812Y-80855426D01*
X75463075Y-80845495D01*
X75465549Y-80751000D01*
X75445717Y-80484123D01*
X75386655Y-80223109D01*
X75289662Y-79973691D01*
X75156868Y-79741350D01*
X75145655Y-79727127D01*
X75144209Y-79724543D01*
X75139424Y-79717450D01*
X75140014Y-79717052D01*
X75084660Y-79618209D01*
X75060307Y-79495773D01*
X75074980Y-79371804D01*
X75123423Y-79264264D01*
X75182697Y-79172111D01*
X75246747Y-79072534D01*
X75356661Y-78828534D01*
X75363373Y-78804738D01*
X75425286Y-78585209D01*
X75425286Y-78585208D01*
X75429302Y-78570969D01*
X75437035Y-78510188D01*
X75461811Y-78315434D01*
X75461812Y-78315426D01*
X75463075Y-78305495D01*
X75465549Y-78211000D01*
X75445717Y-77944123D01*
X75386655Y-77683109D01*
X75289662Y-77433691D01*
X75156868Y-77201350D01*
X75145655Y-77187127D01*
X75144209Y-77184543D01*
X75139424Y-77177450D01*
X75140014Y-77177052D01*
X75084660Y-77078209D01*
X75060307Y-76955773D01*
X75074980Y-76831804D01*
X75123423Y-76724264D01*
X75210005Y-76589656D01*
X75246747Y-76532534D01*
X75356661Y-76288534D01*
X75385165Y-76187469D01*
X75425286Y-76045209D01*
X75425286Y-76045208D01*
X75429302Y-76030969D01*
X75432042Y-76009436D01*
X75461811Y-75775434D01*
X75461812Y-75775426D01*
X75463075Y-75765495D01*
X75465549Y-75671000D01*
X75445717Y-75404123D01*
X75386655Y-75143109D01*
X75369149Y-75098091D01*
X75295030Y-74907494D01*
X75295028Y-74907490D01*
X75289662Y-74893691D01*
X75156868Y-74661350D01*
X75145655Y-74647127D01*
X75144209Y-74644543D01*
X75139424Y-74637450D01*
X75140014Y-74637052D01*
X75084660Y-74538209D01*
X75060307Y-74415773D01*
X75074980Y-74291804D01*
X75123423Y-74184264D01*
X75151745Y-74140232D01*
X75246747Y-73992534D01*
X75356661Y-73748534D01*
X75375813Y-73680629D01*
X75425286Y-73505209D01*
X75425286Y-73505208D01*
X75429302Y-73490969D01*
X75442050Y-73390769D01*
X75461811Y-73235434D01*
X75461812Y-73235426D01*
X75463075Y-73225495D01*
X75465549Y-73131000D01*
X75445717Y-72864123D01*
X75386655Y-72603109D01*
X75371287Y-72563590D01*
X75295030Y-72367494D01*
X75295028Y-72367490D01*
X75289662Y-72353691D01*
X75156868Y-72121350D01*
X75145655Y-72107127D01*
X75144209Y-72104543D01*
X75139424Y-72097450D01*
X75140014Y-72097052D01*
X75084660Y-71998209D01*
X75060307Y-71875773D01*
X75074980Y-71751804D01*
X75123423Y-71644264D01*
X75193656Y-71535073D01*
X75246747Y-71452534D01*
X75356661Y-71208534D01*
X75375790Y-71140710D01*
X75425286Y-70965209D01*
X75425286Y-70965208D01*
X75429302Y-70950969D01*
X75432085Y-70929098D01*
X75461811Y-70695434D01*
X75461812Y-70695426D01*
X75463075Y-70685495D01*
X75465549Y-70591000D01*
X75445717Y-70324123D01*
X75386655Y-70063109D01*
X75289662Y-69813691D01*
X75156868Y-69581350D01*
X75145655Y-69567127D01*
X75144209Y-69564543D01*
X75139424Y-69557450D01*
X75140014Y-69557052D01*
X75084660Y-69458209D01*
X75060307Y-69335773D01*
X75074980Y-69211804D01*
X75123423Y-69104264D01*
X75185294Y-69008074D01*
X75246747Y-68912534D01*
X75356661Y-68668534D01*
X75375813Y-68600629D01*
X75425286Y-68425209D01*
X75425286Y-68425208D01*
X75429302Y-68410969D01*
X75434075Y-68373458D01*
X75461811Y-68155434D01*
X75461812Y-68155426D01*
X75463075Y-68145495D01*
X75465549Y-68051000D01*
X75445717Y-67784123D01*
X75386655Y-67523109D01*
X75363840Y-67464440D01*
X75295030Y-67287494D01*
X75295028Y-67287490D01*
X75289662Y-67273691D01*
X75156868Y-67041350D01*
X75145655Y-67027127D01*
X75144209Y-67024543D01*
X75139424Y-67017450D01*
X75140014Y-67017052D01*
X75084660Y-66918209D01*
X75060307Y-66795773D01*
X75074980Y-66671804D01*
X75123423Y-66564264D01*
X75157738Y-66510915D01*
X75246747Y-66372534D01*
X75356661Y-66128534D01*
X75375813Y-66060629D01*
X75425286Y-65885209D01*
X75425286Y-65885208D01*
X75429302Y-65870969D01*
X75438857Y-65795868D01*
X75461811Y-65615434D01*
X75461812Y-65615426D01*
X75463075Y-65605495D01*
X75465549Y-65511000D01*
X75445717Y-65244123D01*
X75386655Y-64983109D01*
X75369149Y-64938091D01*
X75295030Y-64747494D01*
X75295028Y-64747490D01*
X75289662Y-64733691D01*
X75156868Y-64501350D01*
X75147700Y-64489720D01*
X75145329Y-64486712D01*
X75143654Y-64483722D01*
X75139424Y-64477450D01*
X75139945Y-64477098D01*
X75084332Y-64377794D01*
X75059979Y-64255358D01*
X75074652Y-64131389D01*
X75123096Y-64023847D01*
X75238295Y-63844750D01*
X75252388Y-63818792D01*
X75350105Y-63601868D01*
X75360208Y-63574110D01*
X75424791Y-63345119D01*
X75430679Y-63316176D01*
X75461310Y-63075393D01*
X75462835Y-63055466D01*
X75464785Y-62981008D01*
X75464305Y-62961020D01*
X75446317Y-62718964D01*
X75441952Y-62689756D01*
X75389442Y-62457695D01*
X75380808Y-62429454D01*
X75300712Y-62223488D01*
X75274225Y-62101496D01*
X75286732Y-61977289D01*
X75332652Y-61871556D01*
X75341664Y-61860266D01*
X75419827Y-61698577D01*
X75435294Y-61631581D01*
X75456425Y-61540054D01*
X75456425Y-61540051D01*
X75460226Y-61523589D01*
X75460500Y-61518837D01*
X75460499Y-59343164D01*
X75460226Y-59338411D01*
X75456069Y-59320402D01*
X75424844Y-59185154D01*
X75419827Y-59163423D01*
X75341664Y-59001734D01*
X75229620Y-58861380D01*
X75089266Y-58749336D01*
X75031906Y-58721607D01*
X74947657Y-58680880D01*
X74927577Y-58671173D01*
X74900436Y-58664907D01*
X74769054Y-58634575D01*
X74769051Y-58634575D01*
X74752589Y-58630774D01*
X74747837Y-58630500D01*
X73661950Y-58630500D01*
X72572164Y-58630501D01*
X72567411Y-58630774D01*
X72550932Y-58634578D01*
X72550928Y-58634579D01*
X72419564Y-58664907D01*
X72392423Y-58671173D01*
X72372343Y-58680880D01*
X72372340Y-58680881D01*
X72247632Y-58741167D01*
X72128125Y-58777248D01*
X72003318Y-58774634D01*
X71885427Y-58733580D01*
X71791839Y-58664076D01*
X71498829Y-58371066D01*
X71480981Y-58352009D01*
X71453972Y-58321211D01*
X71453971Y-58321210D01*
X71441910Y-58307457D01*
X71371708Y-58252114D01*
X71363593Y-58245542D01*
X71308952Y-58200098D01*
X71308945Y-58200093D01*
X71294883Y-58188398D01*
X71281072Y-58180663D01*
X71268640Y-58170863D01*
X71252460Y-58162350D01*
X71252452Y-58162345D01*
X71189524Y-58129237D01*
X71180346Y-58124254D01*
X71102379Y-58080590D01*
X71087389Y-58075502D01*
X71073380Y-58068131D01*
X71055903Y-58062704D01*
X71055900Y-58062703D01*
X70988024Y-58041627D01*
X70978105Y-58038404D01*
X70893452Y-58009669D01*
X70877786Y-58007397D01*
X70862667Y-58002703D01*
X70773851Y-57992191D01*
X70763577Y-57990838D01*
X70693203Y-57980634D01*
X70693201Y-57980634D01*
X70675098Y-57978009D01*
X70656821Y-57978727D01*
X70656820Y-57978727D01*
X70594084Y-57981192D01*
X70578420Y-57981500D01*
X58473672Y-57981500D01*
X58447579Y-57980646D01*
X58432927Y-57979686D01*
X58406690Y-57977966D01*
X58406688Y-57977966D01*
X58388440Y-57976770D01*
X58370275Y-57978920D01*
X58370274Y-57978920D01*
X58299699Y-57987273D01*
X58289314Y-57988365D01*
X58247550Y-57992203D01*
X58200289Y-57996546D01*
X58185051Y-58000844D01*
X58169333Y-58002704D01*
X58083974Y-58029208D01*
X58074003Y-58032162D01*
X57987936Y-58056435D01*
X57973736Y-58063438D01*
X57958621Y-58068131D01*
X57942442Y-58076643D01*
X57942428Y-58076649D01*
X57879534Y-58109740D01*
X57870235Y-58114479D01*
X57790053Y-58154020D01*
X57777367Y-58163493D01*
X57763359Y-58170863D01*
X57693131Y-58226226D01*
X57684886Y-58232552D01*
X57658690Y-58252114D01*
X57613267Y-58286033D01*
X57600849Y-58299467D01*
X57558237Y-58345564D01*
X57547404Y-58356832D01*
X57081634Y-58822602D01*
X56980642Y-58895977D01*
X56861917Y-58934553D01*
X56737083Y-58934553D01*
X56618358Y-58895977D01*
X56517364Y-58822601D01*
X56443988Y-58721607D01*
X56405412Y-58602882D01*
X56400500Y-58540465D01*
X56400500Y-52084199D01*
X56403069Y-52047454D01*
X56402544Y-52047414D01*
X56403506Y-52034907D01*
X56405251Y-52022493D01*
X56405565Y-52000000D01*
X56404168Y-51987549D01*
X56403810Y-51980218D01*
X56403962Y-51938363D01*
X56416796Y-51709820D01*
X56421805Y-51665356D01*
X56429390Y-51620717D01*
X56466738Y-51400896D01*
X56476695Y-51357275D01*
X56550951Y-51099528D01*
X56565729Y-51057295D01*
X56668385Y-50809463D01*
X56687799Y-50769151D01*
X56817544Y-50534395D01*
X56841348Y-50496510D01*
X56996577Y-50277735D01*
X57024471Y-50242757D01*
X57203217Y-50042740D01*
X57234849Y-50011109D01*
X57434862Y-49832368D01*
X57469842Y-49804472D01*
X57549881Y-49747681D01*
X57688611Y-49649247D01*
X57726492Y-49625445D01*
X57961254Y-49495697D01*
X58001566Y-49476283D01*
X58220192Y-49385725D01*
X58249397Y-49373628D01*
X58291629Y-49358851D01*
X58549377Y-49284596D01*
X58592997Y-49274640D01*
X58857456Y-49229706D01*
X58901918Y-49224696D01*
X58922329Y-49223550D01*
X59046526Y-49236134D01*
X59160757Y-49286482D01*
X59253839Y-49369666D01*
X59316660Y-49477542D01*
X59343071Y-49599551D01*
X59330487Y-49723749D01*
X59280139Y-49837980D01*
X59196955Y-49931062D01*
X59089079Y-49993883D01*
X59069659Y-50000850D01*
X58792800Y-50092144D01*
X58781343Y-50097621D01*
X58781338Y-50097623D01*
X58527940Y-50218759D01*
X58527933Y-50218763D01*
X58516482Y-50224237D01*
X58259188Y-50390369D01*
X58249471Y-50398566D01*
X58111710Y-50514778D01*
X58025090Y-50587848D01*
X57817981Y-50813471D01*
X57641220Y-51063582D01*
X57497672Y-51334126D01*
X57389664Y-51620717D01*
X57386728Y-51633088D01*
X57386727Y-51633092D01*
X57343399Y-51815670D01*
X57318947Y-51918709D01*
X57312867Y-51976075D01*
X57301408Y-52084199D01*
X57286668Y-52223271D01*
X57293349Y-52529465D01*
X57295238Y-52542026D01*
X57295238Y-52542032D01*
X57336994Y-52819766D01*
X57338883Y-52832330D01*
X57422531Y-53126953D01*
X57542937Y-53408560D01*
X57698149Y-53672585D01*
X57705931Y-53682636D01*
X57705934Y-53682640D01*
X57830788Y-53843891D01*
X57885651Y-53914747D01*
X58102404Y-54131122D01*
X58344894Y-54318202D01*
X58355855Y-54324620D01*
X58355861Y-54324624D01*
X58598217Y-54466529D01*
X58598221Y-54466531D01*
X58609189Y-54472953D01*
X58620881Y-54477928D01*
X58620883Y-54477929D01*
X58804024Y-54555856D01*
X58891006Y-54592867D01*
X58903248Y-54596320D01*
X58903249Y-54596320D01*
X59173531Y-54672548D01*
X59173534Y-54672549D01*
X59185775Y-54676001D01*
X59488718Y-54721006D01*
X59499236Y-54721447D01*
X59499238Y-54721447D01*
X59567932Y-54724326D01*
X59572084Y-54724500D01*
X59767474Y-54724500D01*
X59995647Y-54709945D01*
X60015849Y-54706036D01*
X60283858Y-54654183D01*
X60283864Y-54654181D01*
X60296338Y-54651768D01*
X60308408Y-54647788D01*
X60575131Y-54559836D01*
X60575134Y-54559835D01*
X60587200Y-54555856D01*
X60598657Y-54550379D01*
X60598662Y-54550377D01*
X60852060Y-54429241D01*
X60852067Y-54429237D01*
X60863518Y-54423763D01*
X61120812Y-54257631D01*
X61354910Y-54060152D01*
X61562019Y-53834529D01*
X61721407Y-53609000D01*
X64344786Y-53609000D01*
X69767215Y-53609000D01*
X69767215Y-50023000D01*
X64344786Y-50023000D01*
X64344786Y-53609000D01*
X61721407Y-53609000D01*
X61738780Y-53584418D01*
X61882328Y-53313874D01*
X61990336Y-53027283D01*
X62033700Y-52844555D01*
X62058119Y-52741655D01*
X62058119Y-52741653D01*
X62061053Y-52729291D01*
X62093332Y-52424729D01*
X62086651Y-52118535D01*
X62075965Y-52047454D01*
X62043006Y-51828234D01*
X62043006Y-51828233D01*
X62041117Y-51815670D01*
X61957469Y-51521047D01*
X61837063Y-51239440D01*
X61681851Y-50975415D01*
X61556461Y-50813471D01*
X61502133Y-50743306D01*
X61502132Y-50743305D01*
X61494349Y-50733253D01*
X61277596Y-50516878D01*
X61251196Y-50496510D01*
X61045167Y-50337560D01*
X61035106Y-50329798D01*
X61024145Y-50323380D01*
X61024139Y-50323376D01*
X60781783Y-50181471D01*
X60781779Y-50181469D01*
X60770811Y-50175047D01*
X60588853Y-50097623D01*
X60500691Y-50060110D01*
X60500690Y-50060109D01*
X60488994Y-50055133D01*
X60476758Y-50051682D01*
X60476755Y-50051681D01*
X60332898Y-50011109D01*
X60263074Y-49991417D01*
X60149708Y-49939154D01*
X60058039Y-49854416D01*
X59997042Y-49745498D01*
X59972689Y-49623062D01*
X59987362Y-49499092D01*
X60039625Y-49385725D01*
X60124363Y-49294056D01*
X60233281Y-49233059D01*
X60355717Y-49208706D01*
X60371381Y-49208398D01*
X112336733Y-49208398D01*
X112460031Y-49227926D01*
G37*
%TD.AperFunction*%
%TD*%
M02*
