%TF.GenerationSoftware,KiCad,Pcbnew,6.0.6-3a73a75311~116~ubuntu22.04.1*%
%TF.CreationDate,2022-08-13T00:33:12+05:30*%
%TF.ProjectId,esp32_breakout_board,65737033-325f-4627-9265-616b6f75745f,rev?*%
%TF.SameCoordinates,Original*%
%TF.FileFunction,Copper,L1,Top*%
%TF.FilePolarity,Positive*%
%FSLAX46Y46*%
G04 Gerber Fmt 4.6, Leading zero omitted, Abs format (unit mm)*
G04 Created by KiCad (PCBNEW 6.0.6-3a73a75311~116~ubuntu22.04.1) date 2022-08-13 00:33:12*
%MOMM*%
%LPD*%
G01*
G04 APERTURE LIST*
%TA.AperFunction,ComponentPad*%
%ADD10R,1.600000X1.600000*%
%TD*%
%TA.AperFunction,ComponentPad*%
%ADD11C,1.600000*%
%TD*%
%TA.AperFunction,ComponentPad*%
%ADD12R,2.000000X2.000000*%
%TD*%
%TA.AperFunction,ComponentPad*%
%ADD13C,2.000000*%
%TD*%
%TA.AperFunction,ComponentPad*%
%ADD14C,1.400000*%
%TD*%
%TA.AperFunction,ComponentPad*%
%ADD15O,1.400000X1.400000*%
%TD*%
%TA.AperFunction,ComponentPad*%
%ADD16O,1.508000X3.016000*%
%TD*%
%TA.AperFunction,ComponentPad*%
%ADD17R,1.700000X1.700000*%
%TD*%
%TA.AperFunction,ComponentPad*%
%ADD18O,1.700000X1.700000*%
%TD*%
%TA.AperFunction,ComponentPad*%
%ADD19O,3.016000X1.508000*%
%TD*%
%TA.AperFunction,ViaPad*%
%ADD20C,0.800000*%
%TD*%
%TA.AperFunction,Conductor*%
%ADD21C,0.800000*%
%TD*%
G04 APERTURE END LIST*
D10*
%TO.P,C1,1*%
%TO.N,OUTPUT*%
X102870000Y-110490000D03*
D11*
%TO.P,C1,2*%
%TO.N,GND*%
X104870000Y-110490000D03*
%TD*%
D12*
%TO.P,U1,1,3V3*%
%TO.N,3V3*%
X73660000Y-60431000D03*
D13*
%TO.P,U1,2,GND*%
%TO.N,GND*%
X73660000Y-62971000D03*
%TO.P,U1,3,A1*%
%TO.N,A1*%
X73660000Y-65511000D03*
%TO.P,U1,4,A2*%
%TO.N,A2*%
X73660000Y-68051000D03*
%TO.P,U1,5,A3*%
%TO.N,A3*%
X73660000Y-70591000D03*
%TO.P,U1,6*%
%TO.N,N/C*%
X73660000Y-73131000D03*
%TO.P,U1,7*%
X73660000Y-75671000D03*
%TO.P,U1,8*%
X73660000Y-78211000D03*
%TO.P,U1,9*%
X73660000Y-80751000D03*
%TO.P,U1,10*%
X73660000Y-83291000D03*
%TO.P,U1,11,SDA*%
%TO.N,SDA*%
X73660000Y-85831000D03*
%TO.P,U1,12*%
%TO.N,N/C*%
X73660000Y-88371000D03*
%TO.P,U1,13*%
X73660000Y-90911000D03*
%TO.P,U1,14,SCL*%
%TO.N,SCL*%
X73660000Y-93451000D03*
%TO.P,U1,15*%
%TO.N,N/C*%
X73660000Y-95991000D03*
%TO.P,U1,16*%
X99060000Y-95991000D03*
%TO.P,U1,17*%
X99060000Y-93451000D03*
%TO.P,U1,18*%
X99060000Y-90911000D03*
%TO.P,U1,19*%
X99060000Y-88371000D03*
%TO.P,U1,20*%
X99060000Y-85831000D03*
%TO.P,U1,21,D32*%
%TO.N,D32*%
X99060000Y-83291000D03*
%TO.P,U1,22,D33*%
%TO.N,D33*%
X99060000Y-80751000D03*
%TO.P,U1,23*%
%TO.N,N/C*%
X99060000Y-78211000D03*
%TO.P,U1,24*%
X99060000Y-75671000D03*
%TO.P,U1,25,D27*%
%TO.N,D27*%
X99060000Y-73131000D03*
%TO.P,U1,26*%
%TO.N,N/C*%
X99060000Y-70591000D03*
%TO.P,U1,27*%
X99060000Y-68051000D03*
%TO.P,U1,28*%
X99060000Y-65511000D03*
%TO.P,U1,29,GND*%
%TO.N,GND*%
X99060000Y-62971000D03*
%TO.P,U1,30*%
%TO.N,N/C*%
X99060000Y-60431000D03*
%TD*%
D10*
%TO.P,C2,1*%
%TO.N,INPUT*%
X63560888Y-110998000D03*
D11*
%TO.P,C2,2*%
%TO.N,GND*%
X65560888Y-110998000D03*
%TD*%
D14*
%TO.P,R4,1*%
%TO.N,D8*%
X63500000Y-90678000D03*
D15*
%TO.P,R4,2*%
%TO.N,OUTPUT*%
X63500000Y-98298000D03*
%TD*%
D14*
%TO.P,R6,1*%
%TO.N,D9*%
X106172000Y-88900000D03*
D15*
%TO.P,R6,2*%
%TO.N,OUTPUT*%
X106172000Y-96520000D03*
%TD*%
D16*
%TO.P,U2,1*%
%TO.N,3V3*%
X85090000Y-110998000D03*
%TO.P,U2,2*%
%TO.N,D6*%
X87630000Y-110998000D03*
%TO.P,U2,3*%
%TO.N,D27*%
X90170000Y-110998000D03*
%TD*%
D17*
%TO.P,J1,1,Pin_1*%
%TO.N,INPUT*%
X67051000Y-117856000D03*
D18*
%TO.P,J1,2,Pin_2*%
%TO.N,GND*%
X69591000Y-117856000D03*
%TD*%
D19*
%TO.P,U3,1*%
%TO.N,3V3*%
X64516000Y-80264000D03*
%TO.P,U3,2*%
%TO.N,D8*%
X64516000Y-82804000D03*
%TO.P,U3,3*%
%TO.N,D33*%
X64516000Y-85344000D03*
%TD*%
D14*
%TO.P,R2,1*%
%TO.N,3V3*%
X83566000Y-106426000D03*
D15*
%TO.P,R2,2*%
%TO.N,D27*%
X91186000Y-106426000D03*
%TD*%
D17*
%TO.P,J2,1,Pin_1*%
%TO.N,INPUT*%
X105918000Y-118364000D03*
D18*
%TO.P,J2,2,Pin_2*%
%TO.N,GND*%
X103378000Y-118364000D03*
%TO.P,J2,3,Pin_3*%
%TO.N,OUTPUT*%
X100838000Y-118364000D03*
%TD*%
D17*
%TO.P,J3,1,Pin_1*%
%TO.N,A1*%
X62484000Y-63505000D03*
D18*
%TO.P,J3,2,Pin_2*%
%TO.N,A2*%
X62484000Y-66045000D03*
%TO.P,J3,3,Pin_3*%
%TO.N,A3*%
X62484000Y-68585000D03*
%TO.P,J3,4,Pin_4*%
%TO.N,SDA*%
X62484000Y-71125000D03*
%TO.P,J3,5,Pin_5*%
%TO.N,SCL*%
X62484000Y-73665000D03*
%TD*%
D19*
%TO.P,U4,1*%
%TO.N,3V3*%
X106680000Y-83058000D03*
%TO.P,U4,2*%
%TO.N,D9*%
X106680000Y-80518000D03*
%TO.P,U4,3*%
%TO.N,D32*%
X106680000Y-77978000D03*
%TD*%
D17*
%TO.P,J4,1,Pin_1*%
%TO.N,D27*%
X107696000Y-62245000D03*
D18*
%TO.P,J4,2,Pin_2*%
%TO.N,D32*%
X107696000Y-64785000D03*
%TO.P,J4,3,Pin_3*%
%TO.N,D33*%
X107696000Y-67325000D03*
%TD*%
D14*
%TO.P,R1,1*%
%TO.N,D6*%
X86614000Y-114554000D03*
D15*
%TO.P,R1,2*%
%TO.N,OUTPUT*%
X78994000Y-114554000D03*
%TD*%
D14*
%TO.P,R5,1*%
%TO.N,3V3*%
X111760000Y-84582000D03*
D15*
%TO.P,R5,2*%
%TO.N,D32*%
X111760000Y-76962000D03*
%TD*%
D14*
%TO.P,R3,1*%
%TO.N,3V3*%
X59436000Y-79502000D03*
D15*
%TO.P,R3,2*%
%TO.N,D33*%
X59436000Y-87122000D03*
%TD*%
D20*
%TO.N,GND*%
X76454000Y-62992000D03*
X95779000Y-62971000D03*
%TO.N,3V3*%
X87630000Y-103632000D03*
X98552000Y-103632000D03*
%TD*%
D21*
%TO.N,3V3*%
X87630000Y-103632000D02*
X98552000Y-103632000D01*
%TD*%
M02*
