%TF.GenerationSoftware,KiCad,Pcbnew,6.0.6-3a73a75311~116~ubuntu22.04.1*%
%TF.CreationDate,2022-08-13T00:33:12+05:30*%
%TF.ProjectId,esp32_breakout_board,65737033-325f-4627-9265-616b6f75745f,rev?*%
%TF.SameCoordinates,Original*%
%TF.FileFunction,Legend,Top*%
%TF.FilePolarity,Positive*%
%FSLAX46Y46*%
G04 Gerber Fmt 4.6, Leading zero omitted, Abs format (unit mm)*
G04 Created by KiCad (PCBNEW 6.0.6-3a73a75311~116~ubuntu22.04.1) date 2022-08-13 00:33:12*
%MOMM*%
%LPD*%
G01*
G04 APERTURE LIST*
%ADD10C,0.150000*%
%ADD11C,0.120000*%
%ADD12C,0.127000*%
%ADD13C,0.200000*%
%ADD14C,0.254000*%
G04 APERTURE END LIST*
D10*
X102616095Y-120150000D02*
X102520857Y-120102380D01*
X102378000Y-120102380D01*
X102235142Y-120150000D01*
X102139904Y-120245238D01*
X102092285Y-120340476D01*
X102044666Y-120530952D01*
X102044666Y-120673809D01*
X102092285Y-120864285D01*
X102139904Y-120959523D01*
X102235142Y-121054761D01*
X102378000Y-121102380D01*
X102473238Y-121102380D01*
X102616095Y-121054761D01*
X102663714Y-121007142D01*
X102663714Y-120673809D01*
X102473238Y-120673809D01*
X103092285Y-121102380D02*
X103092285Y-120102380D01*
X103663714Y-121102380D01*
X103663714Y-120102380D01*
X104139904Y-121102380D02*
X104139904Y-120102380D01*
X104378000Y-120102380D01*
X104520857Y-120150000D01*
X104616095Y-120245238D01*
X104663714Y-120340476D01*
X104711333Y-120530952D01*
X104711333Y-120673809D01*
X104663714Y-120864285D01*
X104616095Y-120959523D01*
X104520857Y-121054761D01*
X104378000Y-121102380D01*
X104139904Y-121102380D01*
X103179714Y-62682380D02*
X103179714Y-61682380D01*
X103417809Y-61682380D01*
X103560666Y-61730000D01*
X103655904Y-61825238D01*
X103703523Y-61920476D01*
X103751142Y-62110952D01*
X103751142Y-62253809D01*
X103703523Y-62444285D01*
X103655904Y-62539523D01*
X103560666Y-62634761D01*
X103417809Y-62682380D01*
X103179714Y-62682380D01*
X104132095Y-61777619D02*
X104179714Y-61730000D01*
X104274952Y-61682380D01*
X104513047Y-61682380D01*
X104608285Y-61730000D01*
X104655904Y-61777619D01*
X104703523Y-61872857D01*
X104703523Y-61968095D01*
X104655904Y-62110952D01*
X104084476Y-62682380D01*
X104703523Y-62682380D01*
X105036857Y-61682380D02*
X105703523Y-61682380D01*
X105274952Y-62682380D01*
X66024190Y-120848380D02*
X66024190Y-119848380D01*
X66500380Y-120848380D02*
X66500380Y-119848380D01*
X67071809Y-120848380D01*
X67071809Y-119848380D01*
X64563714Y-68746666D02*
X65039904Y-68746666D01*
X64468476Y-69032380D02*
X64801809Y-68032380D01*
X65135142Y-69032380D01*
X65373238Y-68032380D02*
X65992285Y-68032380D01*
X65658952Y-68413333D01*
X65801809Y-68413333D01*
X65897047Y-68460952D01*
X65944666Y-68508571D01*
X65992285Y-68603809D01*
X65992285Y-68841904D01*
X65944666Y-68937142D01*
X65897047Y-68984761D01*
X65801809Y-69032380D01*
X65516095Y-69032380D01*
X65420857Y-68984761D01*
X65373238Y-68937142D01*
X64571714Y-71524761D02*
X64714571Y-71572380D01*
X64952666Y-71572380D01*
X65047904Y-71524761D01*
X65095523Y-71477142D01*
X65143142Y-71381904D01*
X65143142Y-71286666D01*
X65095523Y-71191428D01*
X65047904Y-71143809D01*
X64952666Y-71096190D01*
X64762190Y-71048571D01*
X64666952Y-71000952D01*
X64619333Y-70953333D01*
X64571714Y-70858095D01*
X64571714Y-70762857D01*
X64619333Y-70667619D01*
X64666952Y-70620000D01*
X64762190Y-70572380D01*
X65000285Y-70572380D01*
X65143142Y-70620000D01*
X65571714Y-71572380D02*
X65571714Y-70572380D01*
X65809809Y-70572380D01*
X65952666Y-70620000D01*
X66047904Y-70715238D01*
X66095523Y-70810476D01*
X66143142Y-71000952D01*
X66143142Y-71143809D01*
X66095523Y-71334285D01*
X66047904Y-71429523D01*
X65952666Y-71524761D01*
X65809809Y-71572380D01*
X65571714Y-71572380D01*
X66524095Y-71286666D02*
X67000285Y-71286666D01*
X66428857Y-71572380D02*
X66762190Y-70572380D01*
X67095523Y-71572380D01*
X99076000Y-120102380D02*
X99266476Y-120102380D01*
X99361714Y-120150000D01*
X99456952Y-120245238D01*
X99504571Y-120435714D01*
X99504571Y-120769047D01*
X99456952Y-120959523D01*
X99361714Y-121054761D01*
X99266476Y-121102380D01*
X99076000Y-121102380D01*
X98980761Y-121054761D01*
X98885523Y-120959523D01*
X98837904Y-120769047D01*
X98837904Y-120435714D01*
X98885523Y-120245238D01*
X98980761Y-120150000D01*
X99076000Y-120102380D01*
X99933142Y-120102380D02*
X99933142Y-120911904D01*
X99980761Y-121007142D01*
X100028380Y-121054761D01*
X100123619Y-121102380D01*
X100314095Y-121102380D01*
X100409333Y-121054761D01*
X100456952Y-121007142D01*
X100504571Y-120911904D01*
X100504571Y-120102380D01*
X100837904Y-120102380D02*
X101409333Y-120102380D01*
X101123619Y-121102380D02*
X101123619Y-120102380D01*
X64563714Y-63666666D02*
X65039904Y-63666666D01*
X64468476Y-63952380D02*
X64801809Y-62952380D01*
X65135142Y-63952380D01*
X65992285Y-63952380D02*
X65420857Y-63952380D01*
X65706571Y-63952380D02*
X65706571Y-62952380D01*
X65611333Y-63095238D01*
X65516095Y-63190476D01*
X65420857Y-63238095D01*
X106156190Y-121102380D02*
X106156190Y-120102380D01*
X106632380Y-121102380D02*
X106632380Y-120102380D01*
X107203809Y-121102380D01*
X107203809Y-120102380D01*
X103433714Y-65476380D02*
X103433714Y-64476380D01*
X103671809Y-64476380D01*
X103814666Y-64524000D01*
X103909904Y-64619238D01*
X103957523Y-64714476D01*
X104005142Y-64904952D01*
X104005142Y-65047809D01*
X103957523Y-65238285D01*
X103909904Y-65333523D01*
X103814666Y-65428761D01*
X103671809Y-65476380D01*
X103433714Y-65476380D01*
X104338476Y-64476380D02*
X104957523Y-64476380D01*
X104624190Y-64857333D01*
X104767047Y-64857333D01*
X104862285Y-64904952D01*
X104909904Y-64952571D01*
X104957523Y-65047809D01*
X104957523Y-65285904D01*
X104909904Y-65381142D01*
X104862285Y-65428761D01*
X104767047Y-65476380D01*
X104481333Y-65476380D01*
X104386095Y-65428761D01*
X104338476Y-65381142D01*
X105338476Y-64571619D02*
X105386095Y-64524000D01*
X105481333Y-64476380D01*
X105719428Y-64476380D01*
X105814666Y-64524000D01*
X105862285Y-64571619D01*
X105909904Y-64666857D01*
X105909904Y-64762095D01*
X105862285Y-64904952D01*
X105290857Y-65476380D01*
X105909904Y-65476380D01*
X64595523Y-74064761D02*
X64738380Y-74112380D01*
X64976476Y-74112380D01*
X65071714Y-74064761D01*
X65119333Y-74017142D01*
X65166952Y-73921904D01*
X65166952Y-73826666D01*
X65119333Y-73731428D01*
X65071714Y-73683809D01*
X64976476Y-73636190D01*
X64786000Y-73588571D01*
X64690761Y-73540952D01*
X64643142Y-73493333D01*
X64595523Y-73398095D01*
X64595523Y-73302857D01*
X64643142Y-73207619D01*
X64690761Y-73160000D01*
X64786000Y-73112380D01*
X65024095Y-73112380D01*
X65166952Y-73160000D01*
X66166952Y-74017142D02*
X66119333Y-74064761D01*
X65976476Y-74112380D01*
X65881238Y-74112380D01*
X65738380Y-74064761D01*
X65643142Y-73969523D01*
X65595523Y-73874285D01*
X65547904Y-73683809D01*
X65547904Y-73540952D01*
X65595523Y-73350476D01*
X65643142Y-73255238D01*
X65738380Y-73160000D01*
X65881238Y-73112380D01*
X65976476Y-73112380D01*
X66119333Y-73160000D01*
X66166952Y-73207619D01*
X67071714Y-74112380D02*
X66595523Y-74112380D01*
X66595523Y-73112380D01*
X69596095Y-119896000D02*
X69500857Y-119848380D01*
X69358000Y-119848380D01*
X69215142Y-119896000D01*
X69119904Y-119991238D01*
X69072285Y-120086476D01*
X69024666Y-120276952D01*
X69024666Y-120419809D01*
X69072285Y-120610285D01*
X69119904Y-120705523D01*
X69215142Y-120800761D01*
X69358000Y-120848380D01*
X69453238Y-120848380D01*
X69596095Y-120800761D01*
X69643714Y-120753142D01*
X69643714Y-120419809D01*
X69453238Y-120419809D01*
X70072285Y-120848380D02*
X70072285Y-119848380D01*
X70643714Y-120848380D01*
X70643714Y-119848380D01*
X71119904Y-120848380D02*
X71119904Y-119848380D01*
X71358000Y-119848380D01*
X71500857Y-119896000D01*
X71596095Y-119991238D01*
X71643714Y-120086476D01*
X71691333Y-120276952D01*
X71691333Y-120419809D01*
X71643714Y-120610285D01*
X71596095Y-120705523D01*
X71500857Y-120800761D01*
X71358000Y-120848380D01*
X71119904Y-120848380D01*
X103433714Y-68016380D02*
X103433714Y-67016380D01*
X103671809Y-67016380D01*
X103814666Y-67064000D01*
X103909904Y-67159238D01*
X103957523Y-67254476D01*
X104005142Y-67444952D01*
X104005142Y-67587809D01*
X103957523Y-67778285D01*
X103909904Y-67873523D01*
X103814666Y-67968761D01*
X103671809Y-68016380D01*
X103433714Y-68016380D01*
X104338476Y-67016380D02*
X104957523Y-67016380D01*
X104624190Y-67397333D01*
X104767047Y-67397333D01*
X104862285Y-67444952D01*
X104909904Y-67492571D01*
X104957523Y-67587809D01*
X104957523Y-67825904D01*
X104909904Y-67921142D01*
X104862285Y-67968761D01*
X104767047Y-68016380D01*
X104481333Y-68016380D01*
X104386095Y-67968761D01*
X104338476Y-67921142D01*
X105290857Y-67016380D02*
X105909904Y-67016380D01*
X105576571Y-67397333D01*
X105719428Y-67397333D01*
X105814666Y-67444952D01*
X105862285Y-67492571D01*
X105909904Y-67587809D01*
X105909904Y-67825904D01*
X105862285Y-67921142D01*
X105814666Y-67968761D01*
X105719428Y-68016380D01*
X105433714Y-68016380D01*
X105338476Y-67968761D01*
X105290857Y-67921142D01*
X64563714Y-66206666D02*
X65039904Y-66206666D01*
X64468476Y-66492380D02*
X64801809Y-65492380D01*
X65135142Y-66492380D01*
X65420857Y-65587619D02*
X65468476Y-65540000D01*
X65563714Y-65492380D01*
X65801809Y-65492380D01*
X65897047Y-65540000D01*
X65944666Y-65587619D01*
X65992285Y-65682857D01*
X65992285Y-65778095D01*
X65944666Y-65920952D01*
X65373238Y-66492380D01*
X65992285Y-66492380D01*
%TO.C,C1*%
X103703333Y-107097142D02*
X103655714Y-107144761D01*
X103512857Y-107192380D01*
X103417619Y-107192380D01*
X103274761Y-107144761D01*
X103179523Y-107049523D01*
X103131904Y-106954285D01*
X103084285Y-106763809D01*
X103084285Y-106620952D01*
X103131904Y-106430476D01*
X103179523Y-106335238D01*
X103274761Y-106240000D01*
X103417619Y-106192380D01*
X103512857Y-106192380D01*
X103655714Y-106240000D01*
X103703333Y-106287619D01*
X104655714Y-107192380D02*
X104084285Y-107192380D01*
X104370000Y-107192380D02*
X104370000Y-106192380D01*
X104274761Y-106335238D01*
X104179523Y-106430476D01*
X104084285Y-106478095D01*
%TO.C,C2*%
X64394221Y-107605142D02*
X64346602Y-107652761D01*
X64203745Y-107700380D01*
X64108507Y-107700380D01*
X63965649Y-107652761D01*
X63870411Y-107557523D01*
X63822792Y-107462285D01*
X63775173Y-107271809D01*
X63775173Y-107128952D01*
X63822792Y-106938476D01*
X63870411Y-106843238D01*
X63965649Y-106748000D01*
X64108507Y-106700380D01*
X64203745Y-106700380D01*
X64346602Y-106748000D01*
X64394221Y-106795619D01*
X64775173Y-106795619D02*
X64822792Y-106748000D01*
X64918030Y-106700380D01*
X65156126Y-106700380D01*
X65251364Y-106748000D01*
X65298983Y-106795619D01*
X65346602Y-106890857D01*
X65346602Y-106986095D01*
X65298983Y-107128952D01*
X64727554Y-107700380D01*
X65346602Y-107700380D01*
%TO.C,R4*%
X65872380Y-94654666D02*
X65396190Y-94988000D01*
X65872380Y-95226095D02*
X64872380Y-95226095D01*
X64872380Y-94845142D01*
X64920000Y-94749904D01*
X64967619Y-94702285D01*
X65062857Y-94654666D01*
X65205714Y-94654666D01*
X65300952Y-94702285D01*
X65348571Y-94749904D01*
X65396190Y-94845142D01*
X65396190Y-95226095D01*
X65205714Y-93797523D02*
X65872380Y-93797523D01*
X64824761Y-94035619D02*
X65539047Y-94273714D01*
X65539047Y-93654666D01*
%TO.C,R6*%
X108544380Y-92876666D02*
X108068190Y-93210000D01*
X108544380Y-93448095D02*
X107544380Y-93448095D01*
X107544380Y-93067142D01*
X107592000Y-92971904D01*
X107639619Y-92924285D01*
X107734857Y-92876666D01*
X107877714Y-92876666D01*
X107972952Y-92924285D01*
X108020571Y-92971904D01*
X108068190Y-93067142D01*
X108068190Y-93448095D01*
X107544380Y-92019523D02*
X107544380Y-92210000D01*
X107592000Y-92305238D01*
X107639619Y-92352857D01*
X107782476Y-92448095D01*
X107972952Y-92495714D01*
X108353904Y-92495714D01*
X108449142Y-92448095D01*
X108496761Y-92400476D01*
X108544380Y-92305238D01*
X108544380Y-92114761D01*
X108496761Y-92019523D01*
X108449142Y-91971904D01*
X108353904Y-91924285D01*
X108115809Y-91924285D01*
X108020571Y-91971904D01*
X107972952Y-92019523D01*
X107925333Y-92114761D01*
X107925333Y-92305238D01*
X107972952Y-92400476D01*
X108020571Y-92448095D01*
X108115809Y-92495714D01*
%TO.C,J1*%
X64173380Y-118189333D02*
X64887666Y-118189333D01*
X65030523Y-118236952D01*
X65125761Y-118332190D01*
X65173380Y-118475047D01*
X65173380Y-118570285D01*
X65173380Y-117189333D02*
X65173380Y-117760761D01*
X65173380Y-117475047D02*
X64173380Y-117475047D01*
X64316238Y-117570285D01*
X64411476Y-117665523D01*
X64459095Y-117760761D01*
%TO.C,R2*%
X87209333Y-104958380D02*
X86876000Y-104482190D01*
X86637904Y-104958380D02*
X86637904Y-103958380D01*
X87018857Y-103958380D01*
X87114095Y-104006000D01*
X87161714Y-104053619D01*
X87209333Y-104148857D01*
X87209333Y-104291714D01*
X87161714Y-104386952D01*
X87114095Y-104434571D01*
X87018857Y-104482190D01*
X86637904Y-104482190D01*
X87590285Y-104053619D02*
X87637904Y-104006000D01*
X87733142Y-103958380D01*
X87971238Y-103958380D01*
X88066476Y-104006000D01*
X88114095Y-104053619D01*
X88161714Y-104148857D01*
X88161714Y-104244095D01*
X88114095Y-104386952D01*
X87542666Y-104958380D01*
X88161714Y-104958380D01*
%TO.C,J2*%
X108140380Y-118697333D02*
X108854666Y-118697333D01*
X108997523Y-118744952D01*
X109092761Y-118840190D01*
X109140380Y-118983047D01*
X109140380Y-119078285D01*
X108235619Y-118268761D02*
X108188000Y-118221142D01*
X108140380Y-118125904D01*
X108140380Y-117887809D01*
X108188000Y-117792571D01*
X108235619Y-117744952D01*
X108330857Y-117697333D01*
X108426095Y-117697333D01*
X108568952Y-117744952D01*
X109140380Y-118316380D01*
X109140380Y-117697333D01*
%TO.C,J3*%
X62150666Y-60627380D02*
X62150666Y-61341666D01*
X62103047Y-61484523D01*
X62007809Y-61579761D01*
X61864952Y-61627380D01*
X61769714Y-61627380D01*
X62531619Y-60627380D02*
X63150666Y-60627380D01*
X62817333Y-61008333D01*
X62960190Y-61008333D01*
X63055428Y-61055952D01*
X63103047Y-61103571D01*
X63150666Y-61198809D01*
X63150666Y-61436904D01*
X63103047Y-61532142D01*
X63055428Y-61579761D01*
X62960190Y-61627380D01*
X62674476Y-61627380D01*
X62579238Y-61579761D01*
X62531619Y-61532142D01*
%TO.C,J4*%
X107362666Y-59367380D02*
X107362666Y-60081666D01*
X107315047Y-60224523D01*
X107219809Y-60319761D01*
X107076952Y-60367380D01*
X106981714Y-60367380D01*
X108267428Y-59700714D02*
X108267428Y-60367380D01*
X108029333Y-59319761D02*
X107791238Y-60034047D01*
X108410285Y-60034047D01*
%TO.C,R1*%
X82637333Y-116926380D02*
X82304000Y-116450190D01*
X82065904Y-116926380D02*
X82065904Y-115926380D01*
X82446857Y-115926380D01*
X82542095Y-115974000D01*
X82589714Y-116021619D01*
X82637333Y-116116857D01*
X82637333Y-116259714D01*
X82589714Y-116354952D01*
X82542095Y-116402571D01*
X82446857Y-116450190D01*
X82065904Y-116450190D01*
X83589714Y-116926380D02*
X83018285Y-116926380D01*
X83304000Y-116926380D02*
X83304000Y-115926380D01*
X83208761Y-116069238D01*
X83113523Y-116164476D01*
X83018285Y-116212095D01*
%TO.C,R5*%
X110292380Y-80938666D02*
X109816190Y-81272000D01*
X110292380Y-81510095D02*
X109292380Y-81510095D01*
X109292380Y-81129142D01*
X109340000Y-81033904D01*
X109387619Y-80986285D01*
X109482857Y-80938666D01*
X109625714Y-80938666D01*
X109720952Y-80986285D01*
X109768571Y-81033904D01*
X109816190Y-81129142D01*
X109816190Y-81510095D01*
X109292380Y-80033904D02*
X109292380Y-80510095D01*
X109768571Y-80557714D01*
X109720952Y-80510095D01*
X109673333Y-80414857D01*
X109673333Y-80176761D01*
X109720952Y-80081523D01*
X109768571Y-80033904D01*
X109863809Y-79986285D01*
X110101904Y-79986285D01*
X110197142Y-80033904D01*
X110244761Y-80081523D01*
X110292380Y-80176761D01*
X110292380Y-80414857D01*
X110244761Y-80510095D01*
X110197142Y-80557714D01*
%TO.C,R3*%
X61808380Y-83478666D02*
X61332190Y-83812000D01*
X61808380Y-84050095D02*
X60808380Y-84050095D01*
X60808380Y-83669142D01*
X60856000Y-83573904D01*
X60903619Y-83526285D01*
X60998857Y-83478666D01*
X61141714Y-83478666D01*
X61236952Y-83526285D01*
X61284571Y-83573904D01*
X61332190Y-83669142D01*
X61332190Y-84050095D01*
X60808380Y-83145333D02*
X60808380Y-82526285D01*
X61189333Y-82859619D01*
X61189333Y-82716761D01*
X61236952Y-82621523D01*
X61284571Y-82573904D01*
X61379809Y-82526285D01*
X61617904Y-82526285D01*
X61713142Y-82573904D01*
X61760761Y-82621523D01*
X61808380Y-82716761D01*
X61808380Y-83002476D01*
X61760761Y-83097714D01*
X61713142Y-83145333D01*
D11*
%TO.C,C1*%
X104030000Y-107914000D02*
X104030000Y-109450000D01*
X106271000Y-109479000D02*
X106271000Y-111501000D01*
X104591000Y-111530000D02*
X104591000Y-112970000D01*
X106071000Y-109107000D02*
X106071000Y-111873000D01*
X104230000Y-107934000D02*
X104230000Y-109450000D01*
X101065225Y-109015000D02*
X101565225Y-109015000D01*
X104350000Y-111530000D02*
X104350000Y-113026000D01*
X106311000Y-109575000D02*
X106311000Y-111405000D01*
X104430000Y-111530000D02*
X104430000Y-113010000D01*
X104110000Y-107921000D02*
X104110000Y-109450000D01*
X104230000Y-111530000D02*
X104230000Y-113046000D01*
X104550000Y-107999000D02*
X104550000Y-109450000D01*
X105471000Y-111530000D02*
X105471000Y-112525000D01*
X104510000Y-107989000D02*
X104510000Y-109450000D01*
X104711000Y-108048000D02*
X104711000Y-109450000D01*
X105031000Y-108180000D02*
X105031000Y-109450000D01*
X105151000Y-111530000D02*
X105151000Y-112737000D01*
X104270000Y-107940000D02*
X104270000Y-109450000D01*
X103910000Y-111530000D02*
X103910000Y-113070000D01*
X105151000Y-108243000D02*
X105151000Y-109450000D01*
X104390000Y-107962000D02*
X104390000Y-109450000D01*
X104070000Y-107917000D02*
X104070000Y-109450000D01*
X104631000Y-108022000D02*
X104631000Y-109450000D01*
X105871000Y-108837000D02*
X105871000Y-109450000D01*
X104671000Y-111530000D02*
X104671000Y-112945000D01*
X105431000Y-108425000D02*
X105431000Y-109450000D01*
X105031000Y-111530000D02*
X105031000Y-112800000D01*
X104751000Y-111530000D02*
X104751000Y-112918000D01*
X105711000Y-108664000D02*
X105711000Y-109450000D01*
X105551000Y-111530000D02*
X105551000Y-112461000D01*
X103870000Y-107910000D02*
X103870000Y-109450000D01*
X105991000Y-108990000D02*
X105991000Y-111990000D01*
X104470000Y-111530000D02*
X104470000Y-113001000D01*
X105671000Y-108626000D02*
X105671000Y-109450000D01*
X104911000Y-108125000D02*
X104911000Y-109450000D01*
X106111000Y-109171000D02*
X106111000Y-111809000D01*
X104911000Y-111530000D02*
X104911000Y-112855000D01*
X104150000Y-107925000D02*
X104150000Y-109450000D01*
X105471000Y-108455000D02*
X105471000Y-109450000D01*
X104030000Y-111530000D02*
X104030000Y-113066000D01*
X105191000Y-108266000D02*
X105191000Y-109450000D01*
X105551000Y-108519000D02*
X105551000Y-109450000D01*
X104350000Y-107954000D02*
X104350000Y-109450000D01*
X105311000Y-108341000D02*
X105311000Y-109450000D01*
X105191000Y-111530000D02*
X105191000Y-112714000D01*
X105751000Y-108705000D02*
X105751000Y-109450000D01*
X105511000Y-108486000D02*
X105511000Y-109450000D01*
X105711000Y-111530000D02*
X105711000Y-112316000D01*
X105231000Y-108290000D02*
X105231000Y-109450000D01*
X104390000Y-111530000D02*
X104390000Y-113018000D01*
X106231000Y-109392000D02*
X106231000Y-111588000D01*
X105271000Y-108315000D02*
X105271000Y-109450000D01*
X104871000Y-111530000D02*
X104871000Y-112872000D01*
X105751000Y-111530000D02*
X105751000Y-112275000D01*
X104190000Y-111530000D02*
X104190000Y-113051000D01*
X105591000Y-108553000D02*
X105591000Y-109450000D01*
X105511000Y-111530000D02*
X105511000Y-112494000D01*
X104951000Y-111530000D02*
X104951000Y-112838000D01*
X105431000Y-111530000D02*
X105431000Y-112555000D01*
X104711000Y-111530000D02*
X104711000Y-112932000D01*
X104831000Y-108092000D02*
X104831000Y-109450000D01*
X104951000Y-108142000D02*
X104951000Y-109450000D01*
X104991000Y-108161000D02*
X104991000Y-109450000D01*
X106471000Y-110206000D02*
X106471000Y-110774000D01*
X105071000Y-108200000D02*
X105071000Y-109450000D01*
X105671000Y-111530000D02*
X105671000Y-112354000D01*
X104310000Y-107947000D02*
X104310000Y-109450000D01*
X104150000Y-111530000D02*
X104150000Y-113055000D01*
X104591000Y-108010000D02*
X104591000Y-109450000D01*
X105791000Y-108747000D02*
X105791000Y-109450000D01*
X105871000Y-111530000D02*
X105871000Y-112143000D01*
X106151000Y-109239000D02*
X106151000Y-111741000D01*
X105831000Y-111530000D02*
X105831000Y-112189000D01*
X104070000Y-111530000D02*
X104070000Y-113063000D01*
X104871000Y-108108000D02*
X104871000Y-109450000D01*
X105591000Y-111530000D02*
X105591000Y-112427000D01*
X105271000Y-111530000D02*
X105271000Y-112665000D01*
X105311000Y-111530000D02*
X105311000Y-112639000D01*
X104190000Y-107929000D02*
X104190000Y-109450000D01*
X106351000Y-109685000D02*
X106351000Y-111295000D01*
X104510000Y-111530000D02*
X104510000Y-112991000D01*
X106031000Y-109047000D02*
X106031000Y-111933000D01*
X105911000Y-108885000D02*
X105911000Y-112095000D01*
X106191000Y-109312000D02*
X106191000Y-111668000D01*
X105951000Y-108936000D02*
X105951000Y-112044000D01*
X105631000Y-111530000D02*
X105631000Y-112391000D01*
X105391000Y-108395000D02*
X105391000Y-109450000D01*
X103950000Y-111530000D02*
X103950000Y-113069000D01*
X105111000Y-108222000D02*
X105111000Y-109450000D01*
X104991000Y-111530000D02*
X104991000Y-112819000D01*
X104550000Y-111530000D02*
X104550000Y-112981000D01*
X106391000Y-109813000D02*
X106391000Y-111167000D01*
X104791000Y-111530000D02*
X104791000Y-112904000D01*
X104310000Y-111530000D02*
X104310000Y-113033000D01*
X105231000Y-111530000D02*
X105231000Y-112690000D01*
X104270000Y-111530000D02*
X104270000Y-113040000D01*
X105071000Y-111530000D02*
X105071000Y-112780000D01*
X104631000Y-111530000D02*
X104631000Y-112958000D01*
X104751000Y-108062000D02*
X104751000Y-109450000D01*
X106431000Y-109972000D02*
X106431000Y-111008000D01*
X105111000Y-111530000D02*
X105111000Y-112758000D01*
X105791000Y-111530000D02*
X105791000Y-112233000D01*
X105391000Y-111530000D02*
X105391000Y-112585000D01*
X104831000Y-111530000D02*
X104831000Y-112888000D01*
X105831000Y-108791000D02*
X105831000Y-109450000D01*
X104671000Y-108035000D02*
X104671000Y-109450000D01*
X104791000Y-108076000D02*
X104791000Y-109450000D01*
X104430000Y-107970000D02*
X104430000Y-109450000D01*
X105351000Y-108368000D02*
X105351000Y-109450000D01*
X103870000Y-111530000D02*
X103870000Y-113070000D01*
X104110000Y-111530000D02*
X104110000Y-113059000D01*
X103910000Y-107910000D02*
X103910000Y-109450000D01*
X103990000Y-111530000D02*
X103990000Y-113068000D01*
X104470000Y-107979000D02*
X104470000Y-109450000D01*
X103990000Y-107912000D02*
X103990000Y-109450000D01*
X103950000Y-107911000D02*
X103950000Y-109450000D01*
X105351000Y-111530000D02*
X105351000Y-112612000D01*
X105631000Y-108589000D02*
X105631000Y-109450000D01*
X101315225Y-108765000D02*
X101315225Y-109265000D01*
X106490000Y-110490000D02*
G75*
G03*
X106490000Y-110490000I-2620000J0D01*
G01*
D12*
%TO.C,U1*%
X72080000Y-50471000D02*
X100590000Y-50471000D01*
X100590000Y-50471000D02*
X100590000Y-101421000D01*
X95140000Y-101421000D02*
X100590000Y-101421000D01*
X72080000Y-50471000D02*
X83149000Y-50471000D01*
X83149000Y-50471000D02*
X89860000Y-50471000D01*
X72080000Y-101421000D02*
X72080000Y-50471000D01*
X72080000Y-101421000D02*
X72080000Y-50471000D01*
X100590000Y-101421000D02*
X72080000Y-101421000D01*
X100590000Y-50471000D02*
X100590000Y-101421000D01*
X72080000Y-101421000D02*
X77450000Y-101421000D01*
X77450000Y-101421000D02*
X95140000Y-101421000D01*
X89860000Y-50471000D02*
X100590000Y-50471000D01*
D13*
X71610000Y-60431000D02*
G75*
G03*
X71610000Y-60431000I-100000J0D01*
G01*
D11*
%TO.C,C2*%
X65120888Y-112038000D02*
X65120888Y-113518000D01*
X66201888Y-108994000D02*
X66201888Y-109958000D01*
X64880888Y-108437000D02*
X64880888Y-109958000D01*
X67081888Y-110321000D02*
X67081888Y-111675000D01*
X65961888Y-112038000D02*
X65961888Y-113173000D01*
X66521888Y-109299000D02*
X66521888Y-109958000D01*
X64680888Y-112038000D02*
X64680888Y-113576000D01*
X65361888Y-112038000D02*
X65361888Y-113453000D01*
X67161888Y-110714000D02*
X67161888Y-111282000D01*
X65240888Y-108507000D02*
X65240888Y-109958000D01*
X64960888Y-108448000D02*
X64960888Y-109958000D01*
X64560888Y-112038000D02*
X64560888Y-113578000D01*
X66281888Y-109061000D02*
X66281888Y-109958000D01*
X66521888Y-112038000D02*
X66521888Y-112697000D01*
X65561888Y-112038000D02*
X65561888Y-113380000D01*
X64880888Y-112038000D02*
X64880888Y-113559000D01*
X65841888Y-112038000D02*
X65841888Y-113245000D01*
X66481888Y-112038000D02*
X66481888Y-112741000D01*
X66761888Y-109615000D02*
X66761888Y-112381000D01*
X66361888Y-112038000D02*
X66361888Y-112862000D01*
X66321888Y-109097000D02*
X66321888Y-109958000D01*
X65761888Y-108708000D02*
X65761888Y-109958000D01*
X66041888Y-108876000D02*
X66041888Y-109958000D01*
X64720888Y-108422000D02*
X64720888Y-109958000D01*
X66041888Y-112038000D02*
X66041888Y-113120000D01*
X66801888Y-109679000D02*
X66801888Y-112317000D01*
X65681888Y-112038000D02*
X65681888Y-113327000D01*
X65481888Y-108584000D02*
X65481888Y-109958000D01*
X65080888Y-108470000D02*
X65080888Y-109958000D01*
X66241888Y-112038000D02*
X66241888Y-112969000D01*
X66441888Y-112038000D02*
X66441888Y-112783000D01*
X65160888Y-108487000D02*
X65160888Y-109958000D01*
X64840888Y-108433000D02*
X64840888Y-109958000D01*
X65641888Y-108650000D02*
X65641888Y-109958000D01*
X65200888Y-112038000D02*
X65200888Y-113499000D01*
X65401888Y-108556000D02*
X65401888Y-109958000D01*
X66001888Y-112038000D02*
X66001888Y-113147000D01*
X66361888Y-109134000D02*
X66361888Y-109958000D01*
X66601888Y-109393000D02*
X66601888Y-112603000D01*
X65921888Y-108798000D02*
X65921888Y-109958000D01*
X65521888Y-108600000D02*
X65521888Y-109958000D01*
X65921888Y-112038000D02*
X65921888Y-113198000D01*
X66001888Y-108849000D02*
X66001888Y-109958000D01*
X65961888Y-108823000D02*
X65961888Y-109958000D01*
X67001888Y-110083000D02*
X67001888Y-111913000D01*
X65120888Y-108478000D02*
X65120888Y-109958000D01*
X65641888Y-112038000D02*
X65641888Y-113346000D01*
X66561888Y-109345000D02*
X66561888Y-109958000D01*
X66201888Y-112038000D02*
X66201888Y-113002000D01*
X65881888Y-108774000D02*
X65881888Y-109958000D01*
X66721888Y-109555000D02*
X66721888Y-112441000D01*
X65441888Y-112038000D02*
X65441888Y-113426000D01*
X65080888Y-112038000D02*
X65080888Y-113526000D01*
X64600888Y-108418000D02*
X64600888Y-109958000D01*
X65361888Y-108543000D02*
X65361888Y-109958000D01*
X66561888Y-112038000D02*
X66561888Y-112651000D01*
X65601888Y-112038000D02*
X65601888Y-113363000D01*
X66441888Y-109213000D02*
X66441888Y-109958000D01*
X67121888Y-110480000D02*
X67121888Y-111516000D01*
X66081888Y-108903000D02*
X66081888Y-109958000D01*
X66681888Y-109498000D02*
X66681888Y-112498000D01*
X65281888Y-112038000D02*
X65281888Y-113478000D01*
X66321888Y-112038000D02*
X66321888Y-112899000D01*
X65561888Y-108616000D02*
X65561888Y-109958000D01*
X65040888Y-112038000D02*
X65040888Y-113534000D01*
X65441888Y-108570000D02*
X65441888Y-109958000D01*
X65321888Y-108530000D02*
X65321888Y-109958000D01*
X64960888Y-112038000D02*
X64960888Y-113548000D01*
X66161888Y-108963000D02*
X66161888Y-109958000D01*
X65040888Y-108462000D02*
X65040888Y-109958000D01*
X65000888Y-108455000D02*
X65000888Y-109958000D01*
X64920888Y-112038000D02*
X64920888Y-113554000D01*
X65801888Y-112038000D02*
X65801888Y-113266000D01*
X65721888Y-112038000D02*
X65721888Y-113308000D01*
X65481888Y-112038000D02*
X65481888Y-113412000D01*
X64760888Y-108425000D02*
X64760888Y-109958000D01*
X65681888Y-108669000D02*
X65681888Y-109958000D01*
X67041888Y-110193000D02*
X67041888Y-111803000D01*
X64720888Y-112038000D02*
X64720888Y-113574000D01*
X66641888Y-109444000D02*
X66641888Y-112552000D01*
X65801888Y-108730000D02*
X65801888Y-109958000D01*
X64560888Y-108418000D02*
X64560888Y-109958000D01*
X66841888Y-109747000D02*
X66841888Y-112249000D01*
X65200888Y-108497000D02*
X65200888Y-109958000D01*
X61756113Y-109523000D02*
X62256113Y-109523000D01*
X66961888Y-109987000D02*
X66961888Y-112009000D01*
X64640888Y-108419000D02*
X64640888Y-109958000D01*
X65601888Y-108633000D02*
X65601888Y-109958000D01*
X65881888Y-112038000D02*
X65881888Y-113222000D01*
X66241888Y-109027000D02*
X66241888Y-109958000D01*
X66281888Y-112038000D02*
X66281888Y-112935000D01*
X65521888Y-112038000D02*
X65521888Y-113396000D01*
X66481888Y-109255000D02*
X66481888Y-109958000D01*
X66121888Y-112038000D02*
X66121888Y-113063000D01*
X64760888Y-112038000D02*
X64760888Y-113571000D01*
X66081888Y-112038000D02*
X66081888Y-113093000D01*
X66121888Y-108933000D02*
X66121888Y-109958000D01*
X65761888Y-112038000D02*
X65761888Y-113288000D01*
X65321888Y-112038000D02*
X65321888Y-113466000D01*
X65000888Y-112038000D02*
X65000888Y-113541000D01*
X64800888Y-108429000D02*
X64800888Y-109958000D01*
X65160888Y-112038000D02*
X65160888Y-113509000D01*
X66161888Y-112038000D02*
X66161888Y-113033000D01*
X66921888Y-109900000D02*
X66921888Y-112096000D01*
X64920888Y-108442000D02*
X64920888Y-109958000D01*
X62006113Y-109273000D02*
X62006113Y-109773000D01*
X64800888Y-112038000D02*
X64800888Y-113567000D01*
X66401888Y-109172000D02*
X66401888Y-109958000D01*
X65281888Y-108518000D02*
X65281888Y-109958000D01*
X65401888Y-112038000D02*
X65401888Y-113440000D01*
X64840888Y-112038000D02*
X64840888Y-113563000D01*
X65240888Y-112038000D02*
X65240888Y-113489000D01*
X66881888Y-109820000D02*
X66881888Y-112176000D01*
X65721888Y-108688000D02*
X65721888Y-109958000D01*
X64680888Y-108420000D02*
X64680888Y-109958000D01*
X64640888Y-112038000D02*
X64640888Y-113577000D01*
X66401888Y-112038000D02*
X66401888Y-112824000D01*
X64600888Y-112038000D02*
X64600888Y-113578000D01*
X65841888Y-108751000D02*
X65841888Y-109958000D01*
X67180888Y-110998000D02*
G75*
G03*
X67180888Y-110998000I-2620000J0D01*
G01*
%TO.C,R4*%
X63500000Y-97358000D02*
X63500000Y-96408000D01*
X64420000Y-92568000D02*
X62580000Y-92568000D01*
X64420000Y-96408000D02*
X64420000Y-92568000D01*
X63500000Y-91618000D02*
X63500000Y-92568000D01*
X62580000Y-92568000D02*
X62580000Y-96408000D01*
X62580000Y-96408000D02*
X64420000Y-96408000D01*
%TO.C,R6*%
X106172000Y-89840000D02*
X106172000Y-90790000D01*
X105252000Y-90790000D02*
X105252000Y-94630000D01*
X107092000Y-94630000D02*
X107092000Y-90790000D01*
X105252000Y-94630000D02*
X107092000Y-94630000D01*
X107092000Y-90790000D02*
X105252000Y-90790000D01*
X106172000Y-95580000D02*
X106172000Y-94630000D01*
D14*
%TO.C,U2*%
X92710000Y-108458000D02*
X92710000Y-109093000D01*
X82550000Y-109093000D02*
X82550000Y-108458000D01*
X82550000Y-112141000D02*
X82550000Y-109093000D01*
X92710000Y-109093000D02*
X82550000Y-109093000D01*
X91948000Y-112903000D02*
X83312000Y-112903000D01*
X92710000Y-109093000D02*
X92710000Y-112014000D01*
X82550000Y-108458000D02*
X92710000Y-108458000D01*
X82550000Y-112141000D02*
G75*
G03*
X83312000Y-112903000I762001J1D01*
G01*
X91948000Y-112903000D02*
G75*
G03*
X92710000Y-112014000I-63500J825500D01*
G01*
D11*
%TO.C,J1*%
X65721000Y-119186000D02*
X65721000Y-117856000D01*
X68321000Y-116526000D02*
X70921000Y-116526000D01*
X67051000Y-119186000D02*
X65721000Y-119186000D01*
X70921000Y-119186000D02*
X70921000Y-116526000D01*
X68321000Y-119186000D02*
X70921000Y-119186000D01*
X68321000Y-119186000D02*
X68321000Y-116526000D01*
D14*
%TO.C,U3*%
X66421000Y-87884000D02*
X66421000Y-77724000D01*
X67056000Y-77724000D02*
X67056000Y-87884000D01*
X66421000Y-77724000D02*
X67056000Y-77724000D01*
X66421000Y-87884000D02*
X63500000Y-87884000D01*
X62611000Y-87122000D02*
X62611000Y-78486000D01*
X67056000Y-87884000D02*
X66421000Y-87884000D01*
X63373000Y-77724000D02*
X66421000Y-77724000D01*
X63373000Y-77724000D02*
G75*
G03*
X62611000Y-78486000I1J-762001D01*
G01*
X62611000Y-87122000D02*
G75*
G03*
X63500000Y-87884000I825500J63500D01*
G01*
D11*
%TO.C,R2*%
X89296000Y-107346000D02*
X89296000Y-105506000D01*
X89296000Y-105506000D02*
X85456000Y-105506000D01*
X85456000Y-107346000D02*
X89296000Y-107346000D01*
X90246000Y-106426000D02*
X89296000Y-106426000D01*
X84506000Y-106426000D02*
X85456000Y-106426000D01*
X85456000Y-105506000D02*
X85456000Y-107346000D01*
%TO.C,J2*%
X107248000Y-119694000D02*
X105918000Y-119694000D01*
X104648000Y-119694000D02*
X99508000Y-119694000D01*
X104648000Y-117034000D02*
X99508000Y-117034000D01*
X104648000Y-117034000D02*
X104648000Y-119694000D01*
X99508000Y-117034000D02*
X99508000Y-119694000D01*
X107248000Y-118364000D02*
X107248000Y-119694000D01*
%TO.C,J3*%
X61154000Y-63505000D02*
X61154000Y-62175000D01*
X61154000Y-64775000D02*
X63814000Y-64775000D01*
X61154000Y-74995000D02*
X63814000Y-74995000D01*
X63814000Y-64775000D02*
X63814000Y-74995000D01*
X61154000Y-64775000D02*
X61154000Y-74995000D01*
X61154000Y-62175000D02*
X62484000Y-62175000D01*
D14*
%TO.C,U4*%
X108585000Y-76200000D02*
X108585000Y-84836000D01*
X104775000Y-75438000D02*
X104775000Y-85598000D01*
X104775000Y-85598000D02*
X104140000Y-85598000D01*
X104775000Y-75438000D02*
X107696000Y-75438000D01*
X107823000Y-85598000D02*
X104775000Y-85598000D01*
X104140000Y-85598000D02*
X104140000Y-75438000D01*
X104140000Y-75438000D02*
X104775000Y-75438000D01*
X108585000Y-76200000D02*
G75*
G03*
X107696000Y-75438000I-825500J-63500D01*
G01*
X107823000Y-85598000D02*
G75*
G03*
X108585000Y-84836000I-1J762001D01*
G01*
D11*
%TO.C,J4*%
X109026000Y-63515000D02*
X109026000Y-68655000D01*
X106366000Y-63515000D02*
X109026000Y-63515000D01*
X106366000Y-63515000D02*
X106366000Y-68655000D01*
X106366000Y-62245000D02*
X106366000Y-60915000D01*
X106366000Y-60915000D02*
X107696000Y-60915000D01*
X106366000Y-68655000D02*
X109026000Y-68655000D01*
%TO.C,R1*%
X80884000Y-113634000D02*
X80884000Y-115474000D01*
X84724000Y-113634000D02*
X80884000Y-113634000D01*
X84724000Y-115474000D02*
X84724000Y-113634000D01*
X79934000Y-114554000D02*
X80884000Y-114554000D01*
X85674000Y-114554000D02*
X84724000Y-114554000D01*
X80884000Y-115474000D02*
X84724000Y-115474000D01*
%TO.C,R5*%
X111760000Y-83642000D02*
X111760000Y-82692000D01*
X112680000Y-78852000D02*
X110840000Y-78852000D01*
X111760000Y-77902000D02*
X111760000Y-78852000D01*
X112680000Y-82692000D02*
X112680000Y-78852000D01*
X110840000Y-78852000D02*
X110840000Y-82692000D01*
X110840000Y-82692000D02*
X112680000Y-82692000D01*
%TO.C,R3*%
X60356000Y-85232000D02*
X60356000Y-81392000D01*
X59436000Y-80442000D02*
X59436000Y-81392000D01*
X60356000Y-81392000D02*
X58516000Y-81392000D01*
X58516000Y-85232000D02*
X60356000Y-85232000D01*
X58516000Y-81392000D02*
X58516000Y-85232000D01*
X59436000Y-86182000D02*
X59436000Y-85232000D01*
%TD*%
M02*
